<svg width="118" height="34" viewBox="0 0 118 34" fill="none" xmlns="http://www.w3.org/2000/svg">
<path fill-rule="evenodd" clip-rule="evenodd" d="M60.8441 32.3486V19.031H71.3538L70.7362 21.3814H64.1861V25.298H69.7067L69.0895 27.6481H64.1861V32.3486H60.8441ZM8.14153 0.525002H16.6266L0.300781 23.527V11.5715L8.14153 0.525002ZM24.889 0.525002H33.485L9.8133 33.8768H1.21764L24.889 0.525002ZM33.6527 11.9301V22.8301L25.8121 33.8768H18.076L33.6527 11.9301ZM88.1984 15.3701V2.05305H93.8405L97.8121 13.0204H98.0543V2.05305H101.396V15.3701H95.8988L91.7823 4.40328H91.54V15.3701H88.1984ZM117.301 15.3701L113.596 2.05305H106.942H103.6V15.3701H106.942V12.9612H113.305L113.959 15.3701H117.301ZM106.942 4.2856H111.004L112.675 10.611H106.942V4.2856ZM43.8642 15.3701L47.5693 2.05305H54.2234H57.5654V15.3701H54.2234V12.9612H47.8598L47.2058 15.3701H43.8642ZM54.2234 4.2856H50.1605L48.4894 10.611H54.2234V4.2856ZM63.1107 10.905V15.3701H59.7689V2.05305H66.1617C70.0361 2.05305 71.9736 3.51532 71.9736 6.44005C71.9736 8.17656 71.1668 9.45574 69.5522 10.2784L71.9013 15.3701H68.2446L66.3315 10.905H63.1107ZM66.2104 8.59434C67.0013 8.59434 67.5907 8.39838 67.9782 8.00665C68.3657 7.61491 68.5595 7.09926 68.5595 6.45933C68.5595 5.81974 68.3537 5.31067 67.942 4.93213C67.5301 4.55341 66.9367 4.36388 66.1617 4.36388H63.1107V8.59434H66.2104ZM74.7827 15.3701V2.05305H85.4373V4.40328H78.1245V7.51702H83.9848V9.82804H78.1245V13.0204H85.4373V15.3701H74.7827ZM72.8641 19.031H84.3338L83.7062 21.4203H79.975V32.3486H76.6332V21.4203H72.2358L72.8641 19.031ZM53.236 32.3486H43.8642V19.031H47.2063V29.9591H53.236V32.3486ZM55.2941 32.3486V19.031H58.6358V32.3486H55.2941Z" fill="black"/>
</svg>
