<svg width="34" height="34" viewBox="0 0 34 34" fill="none" xmlns="http://www.w3.org/2000/svg">
<path d="M17.3153 33.8707C26.4673 33.8707 33.8865 26.4515 33.8865 17.2995C33.8865 8.14751 26.4673 0.728333 17.3153 0.728333C8.1633 0.728333 0.744141 8.14751 0.744141 17.2995C0.744141 26.4515 8.1633 33.8707 17.3153 33.8707Z" fill="#0077FF"/>
<path d="M18.3055 25.1276C10.7334 25.1276 6.41434 19.9376 6.23438 11.3014H10.0274C10.152 17.6401 12.9483 20.3251 15.1631 20.8787V11.3014H18.7347V16.7682C20.9219 16.5329 23.2198 14.0417 23.995 11.3014H27.5665C27.2743 12.7226 26.6922 14.0682 25.8561 15.2542C25.02 16.4401 23.9481 17.4409 22.7076 18.1937C24.0924 18.8817 25.3155 19.8554 26.2961 21.0506C27.277 22.2459 27.9929 23.6354 28.3971 25.1276H24.4658C24.1028 23.8316 23.3655 22.6712 22.3461 21.7925C21.3266 20.9134 20.0703 20.3549 18.7347 20.1867V25.1276H18.3055Z" fill="white"/>
</svg>
