<svg width="34" height="34" viewBox="0 0 34 34" fill="none" xmlns="http://www.w3.org/2000/svg">
<path d="M17.1728 33.6674C26.3248 33.6674 33.744 26.2482 33.744 17.0962C33.744 7.9442 26.3248 0.525002 17.1728 0.525002C8.02078 0.525002 0.601562 7.9442 0.601562 17.0962C0.601562 26.2482 8.02078 33.6674 17.1728 33.6674Z" fill="#18AC41"/>
<path fill-rule="evenodd" clip-rule="evenodd" d="M17.7178 26.3157H17.7138C16.0645 26.3151 14.4441 25.9013 13.0049 25.1162L7.78125 26.4865L9.17917 21.3805C8.31684 19.8861 7.86313 18.1909 7.86382 16.4542C7.86604 11.0213 12.2864 6.60112 17.7177 6.60112C20.3537 6.60226 22.8277 7.62843 24.6881 9.49103C26.5486 11.3535 27.5726 13.8292 27.5715 16.462C27.5693 21.8937 23.1508 26.3134 17.7178 26.3157ZM13.2469 23.3325L13.5459 23.51C14.8035 24.2562 16.2449 24.651 17.7145 24.6514H17.7178C22.2319 24.6514 25.9059 20.9775 25.9077 16.4614C25.9087 14.2731 25.0576 12.2153 23.5113 10.6672C21.965 9.11915 19.9086 8.26621 17.721 8.26546C13.2034 8.26546 9.52938 11.9392 9.52757 16.4548C9.52694 18.0023 9.95995 19.5095 10.7797 20.8134L10.9745 21.1233L10.1471 24.1456L13.2469 23.3325ZM22.3448 18.5836C22.5166 18.6665 22.6325 18.7225 22.6821 18.8052C22.7435 18.9079 22.7435 19.4008 22.5386 19.976C22.3332 20.5512 21.3497 21.0761 20.8766 21.1467C20.4524 21.2101 19.9156 21.2366 19.3257 21.0491C18.9682 20.9356 18.5096 20.7842 17.9222 20.5305C15.614 19.5339 14.0541 17.2967 13.7593 16.8739C13.7387 16.8443 13.7243 16.8236 13.7162 16.8128L13.7142 16.8102C13.5839 16.6363 12.7108 15.4715 12.7108 14.2658C12.7108 13.1317 13.2679 12.5373 13.5244 12.2637C13.542 12.2449 13.5581 12.2277 13.5725 12.2119C13.7982 11.9654 14.065 11.9037 14.2291 11.9037C14.3932 11.9037 14.5576 11.9052 14.701 11.9124C14.7187 11.9133 14.7372 11.9132 14.7561 11.9131C14.8996 11.9123 15.0785 11.9113 15.255 12.3352C15.3229 12.4982 15.4222 12.7401 15.527 12.9951C15.7388 13.5109 15.973 14.0807 16.0141 14.1633C16.0757 14.2865 16.1167 14.4302 16.0346 14.5947C16.0223 14.6193 16.0109 14.6425 16 14.6648C15.9384 14.7906 15.893 14.8832 15.7884 15.0053C15.7473 15.0534 15.7047 15.1052 15.6623 15.1569C15.5775 15.2601 15.4928 15.3633 15.4191 15.4367C15.2958 15.5595 15.1675 15.6927 15.3112 15.9392C15.4547 16.1857 15.9489 16.9919 16.6808 17.6448C17.4677 18.3466 18.1515 18.6432 18.4981 18.7936C18.5658 18.8229 18.6206 18.8467 18.6608 18.8668C18.9069 18.9902 19.0506 18.9695 19.1942 18.8052C19.3379 18.6409 19.8097 18.0862 19.9738 17.8398C20.1379 17.5934 20.3021 17.6344 20.5278 17.7166C20.7536 17.7988 21.964 18.3944 22.2102 18.5176C22.2582 18.5417 22.3031 18.5634 22.3448 18.5836Z" fill="#FDFDFD"/>
</svg>
