<svg width="175" height="175" viewBox="0 0 175 175" fill="none" xmlns="http://www.w3.org/2000/svg">
<path d="M98.0403 21.2671C98.2528 20.099 99.3776 19.3244 100.536 19.5835C115.949 23.0307 129.734 31.8565 139.5 44.5794C149.709 57.8803 154.825 74.5284 153.889 91.4067C152.954 108.285 146.032 124.236 134.418 136.274C123.308 147.79 108.633 154.969 92.9352 156.614C91.7576 156.737 90.7311 155.844 90.6493 154.663C90.5679 153.486 91.4542 152.47 92.6265 152.345C107.313 150.778 121.039 144.048 131.437 133.269C142.335 121.973 148.832 107.004 149.709 91.1647C150.587 75.3256 145.786 59.7025 136.206 47.2205C127.062 35.3076 114.162 27.0354 99.7379 23.7853C98.5924 23.5272 97.8302 22.4224 98.0403 21.2671Z" fill="#FFC01F"/>
<path d="M84.487 147.363C84.4342 148.413 83.5391 149.225 82.4907 149.14C67.0617 147.887 52.6352 140.89 42.0907 129.494C31.1143 117.631 25.2159 101.944 25.6574 85.7885C26.0988 69.6327 32.845 54.2911 44.4528 43.0456C55.6039 32.2424 70.3909 26.0434 85.8654 25.6351C86.9168 25.6073 87.7663 26.4668 87.7617 27.5186C87.757 28.5704 86.9001 29.416 85.8487 29.4459C71.3696 29.8572 57.5395 35.6705 47.1031 45.7812C36.21 56.3344 29.8791 70.7315 29.4649 85.8926C29.0506 101.054 34.5858 115.775 44.8864 126.907C54.7551 137.573 68.2471 144.133 82.6821 145.334C83.7303 145.421 84.5399 146.312 84.487 147.363Z" fill="#FFC01F"/>
</svg>
