<svg width="329" height="330" viewBox="0 0 329 330" fill="none" xmlns="http://www.w3.org/2000/svg">
<path d="M184.405 55.2279C184.642 53.9456 185.876 53.0969 187.153 53.3628C213.483 58.8477 237.065 73.5141 253.694 94.8042C270.809 116.717 279.386 144.145 277.818 171.951C276.25 199.758 264.644 226.037 245.175 245.869C226.258 265.138 201.178 277.036 174.399 279.499C173.101 279.619 171.972 278.637 171.88 277.337C171.789 276.038 172.768 274.913 174.064 274.792C199.705 272.411 223.715 261.009 241.83 242.557C260.497 223.542 271.624 198.345 273.128 171.685C274.631 145.024 266.408 118.726 249.998 97.7162C234.073 77.327 211.497 63.2739 186.287 58.0007C185.013 57.7343 184.168 56.5074 184.405 55.2279Z" fill="#FFC01F"/>
<path d="M88.0836 231.621C87.144 232.434 85.7209 232.334 84.9283 231.376C69.408 212.637 60.9836 188.996 61.1865 164.617C61.3957 139.487 70.7573 115.294 87.5186 96.569C104.28 77.8438 127.292 65.8698 152.245 62.8889C176.453 59.997 200.879 65.7613 221.217 79.1189C222.256 79.8011 222.513 81.2044 221.808 82.228C221.104 83.2516 219.704 83.5078 218.665 82.8267C199.229 70.0891 175.9 64.5953 152.779 67.3573C128.912 70.2084 106.903 81.6608 90.8716 99.5704C74.8404 117.48 65.8866 140.619 65.6866 164.654C65.4928 187.939 73.5273 210.519 88.3318 228.431C89.1235 229.389 89.0232 230.808 88.0836 231.621Z" fill="#FFC01F"/>
<path d="M50.3016 178.305C49.1306 178.437 48.0726 177.594 47.9624 176.421C46.5507 161.388 48.0602 146.217 52.415 131.746C56.9749 116.594 64.5597 102.523 74.7111 90.385C84.8625 78.2467 97.3696 68.2927 111.477 61.1246C124.949 54.2788 139.614 50.1098 154.659 48.8404C155.833 48.7413 156.85 49.6335 156.927 50.8094C157.005 51.9852 156.114 52.9993 154.94 53.0992C140.471 54.3301 126.368 58.3446 113.41 64.929C99.817 71.8358 87.7658 81.4269 77.9846 93.1226C68.2033 104.818 60.895 118.376 56.5013 132.976C52.3128 146.895 50.856 161.485 52.2038 175.944C52.3132 177.118 51.4727 178.173 50.3016 178.305Z" fill="#FFC01F"/>
<path d="M154.39 280.115C154.294 281.197 153.339 281.999 152.259 281.885C128.359 279.372 105.794 269.561 87.6449 253.761C69.4956 237.961 56.6691 216.963 50.8877 193.637C50.6263 192.583 51.2888 191.526 52.3477 191.282C53.4066 191.039 54.4609 191.7 54.7229 192.755C60.3175 215.27 72.706 235.539 90.2285 250.793C107.751 266.047 129.533 275.525 152.604 277.965C153.685 278.079 154.485 279.033 154.39 280.115Z" fill="#FFC01F"/>
</svg>
