<svg width="236" height="237" viewBox="0 0 236 237" fill="none" xmlns="http://www.w3.org/2000/svg">
<path d="M164.514 186.733C164.906 187.303 164.761 188.084 164.185 188.467C147.653 199.455 127.73 204.197 107.996 201.813C87.8465 199.38 69.2749 189.686 55.7581 174.546C42.2413 159.406 34.7061 139.858 34.5635 119.563C34.4237 99.6858 41.3844 80.4261 54.1687 65.2404C54.6143 64.7112 55.4065 64.6555 55.929 65.1089C56.4515 65.5624 56.5064 66.3532 56.0611 66.8827C43.6761 81.6079 36.9332 100.278 37.0687 119.546C37.2071 139.231 44.516 158.192 57.6269 172.877C70.7379 187.563 88.7519 196.966 108.296 199.326C127.426 201.636 146.737 197.045 162.767 186.402C163.343 186.019 164.123 186.163 164.514 186.733Z" fill="#FFC01F"/>
<path d="M138.256 38.8818C138.418 38.3255 139.002 38.0065 139.555 38.1788C154.955 42.977 168.608 52.2915 178.765 64.9447C189.141 77.8727 195.376 93.673 196.639 110.244C197.903 126.815 194.135 143.372 185.837 157.712C177.715 171.747 165.631 183.007 151.134 190.065C150.613 190.319 149.988 190.091 149.744 189.566C149.502 189.045 149.727 188.426 150.244 188.175C164.364 181.296 176.134 170.327 184.046 156.655C192.132 142.682 195.803 126.548 194.572 110.4C193.341 94.2528 187.266 78.8562 177.154 66.2586C167.261 53.9324 153.961 44.8576 138.96 40.1808C138.412 40.0099 138.096 39.4332 138.256 38.8818Z" fill="#FFC01F"/>
</svg>
