<svg width="60" height="57" viewBox="0 0 60 57" fill="none" xmlns="http://www.w3.org/2000/svg">
<path d="M50.4483 56.0877L49.943 55.6346C49.5736 55.3016 40.8969 47.4095 40.8969 40.1208C40.85 34.8463 45.0875 30.5317 50.3628 30.4849C55.6373 30.4381 59.9519 34.6756 59.9987 39.9509C59.9994 40.0075 59.9994 40.0642 59.9987 40.1208C59.9987 47.4095 51.3226 55.3008 50.9534 55.6346L50.4483 56.0877ZM50.4483 32.0785C46.0083 32.0815 42.4089 35.6794 42.4037 40.1193C42.4037 45.7918 48.6078 52.2452 50.4445 54.032C52.2805 52.2451 58.4846 45.7849 58.4846 40.1193C58.4793 35.6823 54.8852 32.086 50.4483 32.0785ZM50.4483 44.3923C48.0881 44.3923 46.1745 42.4786 46.1745 40.1186C46.1745 37.7585 48.0883 35.8448 50.4483 35.8448C52.8084 35.8448 54.722 37.7586 54.722 40.1186V40.1193C54.7198 42.4786 52.8077 44.3901 50.4483 44.3923ZM50.4483 37.356C48.922 37.356 47.6849 38.593 47.6849 40.1193C47.6849 41.6455 48.922 42.8826 50.4483 42.8826C51.9745 42.8826 53.2116 41.6455 53.2116 40.1193C53.2102 38.5937 51.9738 37.3574 50.4483 37.356Z" fill="#0077FF"/>
<path d="M49.8228 12.7741H47.5798V14.2845H49.8228C53.3679 14.2845 56.2423 17.1589 56.2423 20.704C56.2423 24.249 53.3679 27.1234 49.8228 27.1234H29.4318C25.0522 27.1234 21.502 30.6737 21.502 35.0532C21.502 39.4328 25.0522 42.9831 29.4318 42.9831H38.1169C38.5338 42.9831 38.8721 42.6448 38.8721 42.2279C38.8721 41.811 38.5338 41.4727 38.1169 41.4727H29.4318C25.8868 41.4727 23.0124 38.5983 23.0124 35.0532C23.0124 31.5082 25.8868 28.6338 29.4318 28.6338H49.8228C54.2024 28.6338 57.7527 25.0835 57.7527 20.704C57.7527 16.3244 54.2024 12.7741 49.8228 12.7741ZM31.3199 12.7741C30.903 12.7741 30.5647 13.1124 30.5647 13.5293C30.5647 13.9463 30.903 14.2845 31.3199 14.2845H41.538V12.7741H31.3199Z" fill="#0077FF"/>
<path d="M44.5581 17.3054C42.4729 17.3054 40.7821 15.6145 40.7821 13.5293C40.7821 11.4441 42.4729 9.75325 44.5581 9.75325C46.6433 9.75325 48.3342 11.4441 48.3342 13.5293C48.332 15.6137 46.6425 17.3032 44.5581 17.3054ZM44.5581 11.2637C43.3068 11.2637 42.2925 12.278 42.2925 13.5293C42.2925 14.7807 43.3068 15.795 44.5581 15.795C45.8095 15.795 46.8238 14.7807 46.8238 13.5293C46.8238 12.278 45.8095 11.2637 44.5581 11.2637ZM14.3493 26.3682C14.128 26.3681 13.9088 26.3244 13.7043 26.2398L1.04524 20.9986C0.735427 20.8713 0.470543 20.6547 0.284381 20.3762C0.0982184 20.0978 -0.000783391 19.7702 4.66837e-06 19.4353V7.09188C-0.000446655 6.75692 0.0986793 6.42939 0.284789 6.15089C0.470899 5.8724 0.735592 5.6555 1.04524 5.52778L13.702 0.290341C14.1166 0.11961 14.5819 0.11961 14.9965 0.290341L27.6532 5.52778C27.9629 5.6555 28.2275 5.8724 28.4137 6.15089C28.5998 6.42939 28.6989 6.75692 28.6984 7.09188V19.4352C28.6992 19.7703 28.6002 20.0981 28.4139 20.3766C28.2276 20.6552 27.9625 20.872 27.6525 20.9993L14.9965 26.2375C14.7913 26.3229 14.5715 26.3673 14.3493 26.3682ZM14.3493 1.67235C14.3251 1.67235 14.3017 1.67692 14.2798 1.68594L1.62293 6.92338C1.55497 6.95127 1.51044 7.01782 1.51044 7.09176V19.4352C1.51044 19.5084 1.55427 19.5748 1.62223 19.6029L14.2798 24.8418C14.3243 24.8607 14.3758 24.8607 14.4203 24.8418L27.0755 19.6044C27.1435 19.5757 27.188 19.5092 27.188 19.4352V7.09188C27.188 7.01782 27.1435 6.95138 27.0755 6.92349L14.4188 1.68524C14.3966 1.67683 14.373 1.67247 14.3493 1.67235Z" fill="#0077FF"/>
<path d="M15.1051 25.613H13.5947V12.5959L0.652344 7.23838L1.23086 5.84277L14.6391 11.3944C14.7775 11.4516 14.8957 11.5488 14.9787 11.6735C15.0617 11.7982 15.1057 11.9447 15.1051 12.0945V25.613Z" fill="#0077FF"/>
<path d="M14.0643 11.3949L27.4726 5.83712L28.0511 7.23273L14.6428 12.7905L14.0643 11.3949ZM8.21094 9.00354L20.8271 3.03033L21.4734 4.39512L8.85706 10.3683L8.21094 9.00354Z" fill="#0077FF"/>
</svg>
