<svg width="47" height="55" viewBox="0 0 47 55" fill="none" xmlns="http://www.w3.org/2000/svg">
<path d="M37.8703 23.3268C37.8703 15.3986 31.4172 8.95703 23.5006 8.95703C15.584 8.95703 9.13086 15.3986 9.13086 23.3268C9.13086 31.2434 15.5725 37.6965 23.5006 37.6965C31.4287 37.6965 37.8703 31.2434 37.8703 23.3268ZM23.5006 35.8412C16.598 35.8412 10.9746 30.2293 10.9746 23.3152C10.9746 16.4012 16.598 10.8008 23.5006 10.8008C30.4031 10.8008 36.0266 16.4127 36.0266 23.3268C36.0266 30.2408 30.4031 35.8412 23.5006 35.8412Z" fill="#0077FF"/>
<path d="M41.1082 38.192C41.6268 37.927 42.0877 37.5813 42.4449 37.0973C43.3783 35.8182 43.1594 34.1473 42.952 32.5225C42.8137 31.4739 42.6754 30.3791 42.9174 29.6416C43.1363 28.9502 43.8738 28.1782 44.5768 27.4407C45.6715 26.2883 46.9045 24.9862 46.9045 23.3383C46.9045 21.6905 45.683 20.3653 44.5883 19.2129C43.8853 18.4639 43.1479 17.7034 42.9289 17.0119C42.6869 16.2744 42.8252 15.1797 42.9635 14.1311C43.1709 12.5063 43.3783 10.8354 42.4564 9.55628C41.523 8.26566 39.8521 7.95452 38.2389 7.64339C37.2018 7.44749 36.1301 7.25159 35.5193 6.80218C34.9086 6.36429 34.4016 5.41937 33.9061 4.49749C33.157 3.11468 32.2928 1.54749 30.7602 1.04046C29.2852 0.556476 27.7756 1.27093 26.3121 1.96234C25.3326 2.42327 24.3301 2.89573 23.5234 2.89573C22.7168 2.89573 21.7143 2.42327 20.7348 1.96234C19.2713 1.27093 17.7617 0.556476 16.2867 1.04046C14.7426 1.53597 13.9359 3.04554 13.1408 4.49749C12.6453 5.40784 12.1268 6.36429 11.5275 6.80218C10.9053 7.25159 9.84512 7.45902 8.80801 7.64339C7.19473 7.943 5.52383 8.26566 4.59043 9.55628C3.65703 10.8354 3.87598 12.5063 4.0834 14.1311C4.22168 15.1797 4.35996 16.2744 4.11797 17.0119C3.89902 17.7034 3.16152 18.4754 2.45859 19.2129C1.36387 20.3653 0.130859 21.6674 0.130859 23.3153C0.130859 24.9631 1.37539 26.2653 2.45859 27.4176C3.16152 28.1666 3.89902 28.9272 4.11797 29.6186C4.35996 30.3561 4.22168 31.4508 4.0834 32.4994C3.87598 34.1242 3.66855 35.7951 4.59043 37.0742C4.94766 37.5582 5.40859 37.9155 5.92715 38.169L0.90293 46.8692C0.718555 47.1918 0.741601 47.5951 0.97207 47.8948C1.20254 48.1944 1.58281 48.3211 1.94004 48.2289L9.36113 46.2354L11.3547 53.6565C11.4469 54.0137 11.758 54.2787 12.1268 54.3364C12.1729 54.3364 12.2074 54.3479 12.242 54.3479C12.5646 54.3479 12.8758 54.175 13.0371 53.8869L17.7502 45.7168C18.7527 45.6016 19.7668 45.1291 20.7463 44.6682C21.7258 44.2073 22.7283 43.7348 23.535 43.7348C24.3416 43.7348 25.3441 44.2073 26.3236 44.6682C27.3031 45.1291 28.3172 45.6131 29.3197 45.7168L34.0328 53.8869C34.1941 54.175 34.5053 54.3479 34.8279 54.3479C34.8625 54.3479 34.9086 54.3479 34.9432 54.3364C35.3119 54.2903 35.6115 54.0252 35.7152 53.6565L37.7088 46.2354L45.1299 48.2289C45.4871 48.3211 45.8674 48.1944 46.0979 47.8948C46.3283 47.5951 46.3514 47.1918 46.167 46.8692L41.1082 38.192ZM12.5186 51.0522L10.8707 44.8871C10.7439 44.3916 10.2369 44.1035 9.74141 44.2303L3.57637 45.8782L7.67871 38.7682C8.03594 38.8489 8.40469 38.918 8.77344 38.9871C9.81055 39.183 10.8822 39.3789 11.493 39.8284C12.1037 40.2662 12.6107 41.2112 13.1063 42.133C13.7746 43.366 14.5236 44.7373 15.7682 45.3826L12.5186 51.0522ZM23.5004 41.9026C22.2789 41.9026 21.0805 42.4672 19.9281 43.0088C18.7873 43.5504 17.6119 44.1035 16.8398 43.85C15.9986 43.5735 15.3648 42.3981 14.7426 41.2688C14.1434 40.1741 13.5326 39.0448 12.5877 38.3534C11.6313 37.6619 10.3521 37.42 9.11914 37.1895C7.86309 36.9475 6.56094 36.7055 6.04238 36.0141C5.54688 35.3342 5.7082 34.0205 5.86953 32.7645C6.03086 31.5084 6.19219 30.2178 5.82344 29.077C5.46621 27.9938 4.59043 27.0604 3.74922 26.1731C2.85039 25.2282 1.91699 24.2487 1.91699 23.3383C1.91699 22.428 2.85039 21.4485 3.74922 20.5035C4.60195 19.6047 5.47773 18.6828 5.82344 17.5996C6.19219 16.4588 6.03086 15.1682 5.86953 13.9121C5.7082 12.6446 5.54688 11.3424 6.04238 10.6625C6.54941 9.9596 7.85156 9.71761 9.11914 9.48714C10.3521 9.25667 11.6313 9.01468 12.5877 8.32327C13.5326 7.64339 14.1434 6.50257 14.7426 5.40784C15.3648 4.26702 15.9986 3.10316 16.8398 2.82659C17.6234 2.57308 18.7988 3.1262 19.9281 3.6678C21.0805 4.20941 22.2789 4.77405 23.5004 4.77405C24.7219 4.77405 25.9203 4.20941 27.0727 3.6678C28.2135 3.1262 29.3889 2.57308 30.1609 2.82659C31.0021 3.10316 31.6359 4.27855 32.2582 5.40784C32.8574 6.50257 33.4682 7.63187 34.4131 8.32327C35.3695 9.01468 36.6486 9.25667 37.8816 9.48714C39.1377 9.72913 40.4398 9.97112 40.9584 10.6625C41.4539 11.3424 41.2926 12.6561 41.1312 13.9121C40.9699 15.1682 40.8086 16.4588 41.1773 17.5996C41.5346 18.6828 42.4104 19.6162 43.2516 20.5035C44.1504 21.4485 45.0838 22.428 45.0838 23.3383C45.0838 24.2487 44.1504 25.2282 43.2516 26.1731C42.3988 27.0719 41.523 27.9938 41.1773 29.077C40.8086 30.2178 40.9699 31.5084 41.1312 32.7645C41.2926 34.0321 41.4539 35.3342 40.9584 36.0141C40.4514 36.717 39.1492 36.959 37.8816 37.1895C36.6486 37.42 35.3695 37.6619 34.4131 38.3534C33.4682 39.0332 32.8574 40.1741 32.2582 41.2688C31.6359 42.4096 31.0021 43.5735 30.1609 43.85C29.3773 44.1035 28.202 43.5504 27.0727 43.0088C25.9203 42.4672 24.7219 41.9026 23.5004 41.9026ZM37.2594 44.2303C36.7639 44.1035 36.2568 44.3916 36.1301 44.8871L34.4822 51.0522L31.2211 45.4057C32.4541 44.7719 33.1801 43.4467 33.883 42.1561C34.3785 41.2457 34.8971 40.2893 35.4963 39.8514C36.1186 39.402 37.1787 39.1946 38.2158 39.0102C38.5846 38.941 38.9533 38.8719 39.3105 38.7912L43.4129 45.9012L37.2594 44.2303Z" fill="#0077FF"/>
<path d="M32.1431 17.6803C31.7859 17.323 31.1982 17.323 30.841 17.6803L21.507 27.0143L16.1716 21.6789C15.8144 21.3217 15.2267 21.3217 14.8695 21.6789C14.5123 22.0361 14.5123 22.6238 14.8695 22.9811L20.8617 28.9732C21.0345 29.1461 21.265 29.2383 21.5185 29.2383C21.772 29.2383 22.0025 29.1461 22.1753 28.9732L32.1431 18.9824C32.5003 18.6252 32.5003 18.0375 32.1431 17.6803Z" fill="#0077FF"/>
</svg>
