<svg width="52" height="50" viewBox="0 0 52 50" fill="none" xmlns="http://www.w3.org/2000/svg">
<path d="M50.2663 21.6716L48.1896 19.105C47.6978 18.5012 47.4483 17.736 47.4896 16.9583L47.6529 13.6683C47.7103 12.4131 47.3398 11.1756 46.6023 10.1583C45.8648 9.14096 44.8038 8.40412 43.5929 8.06831L40.4196 7.20498C39.6644 6.99949 39.0094 6.5269 38.5763 5.87498L36.7796 3.12164C36.0901 2.07562 35.0665 1.29399 33.8759 0.904165C32.6852 0.514338 31.3976 0.539298 30.2229 0.974976L27.1196 2.16498C26.3992 2.44498 25.6 2.44498 24.8796 2.16498L21.7996 0.974976C20.6217 0.535955 19.3298 0.509202 18.1347 0.899084C16.9396 1.28897 15.912 2.07245 15.2196 3.12164L13.4229 5.87498C12.9898 6.5269 12.3348 6.99949 11.5796 7.20498L8.40627 8.06831C7.19545 8.40412 6.13445 9.14096 5.3969 10.1583C4.65936 11.1756 4.28895 12.4131 4.34627 13.6683L4.50961 16.9583C4.5509 17.736 4.30138 18.5012 3.80961 19.105L1.73294 21.6716C0.951118 22.6529 0.525391 23.8704 0.525391 25.125C0.525391 26.3796 0.951118 27.5971 1.73294 28.5783L3.80961 31.145C4.30138 31.7488 4.5509 32.514 4.50961 33.2916L4.34627 36.5816C4.28895 37.8369 4.65936 39.0744 5.3969 40.0917C6.13445 41.109 7.19545 41.8458 8.40627 42.1816L11.5796 43.045C12.3348 43.2505 12.9898 43.723 13.4229 44.375L15.2196 47.1283C15.9068 48.1769 16.9302 48.9606 18.1217 49.3507C19.3132 49.7408 20.602 49.7141 21.7763 49.275L24.8796 48.085C25.6 47.805 26.3992 47.805 27.1196 48.085L30.1996 49.275C31.3775 49.714 32.6695 49.7407 33.8645 49.3509C35.0596 48.961 36.0872 48.1775 36.7796 47.1283L38.5763 44.375C39.0094 43.723 39.6644 43.2505 40.4196 43.045L43.5929 42.1816C44.8038 41.8458 45.8648 41.109 46.6023 40.0917C47.3398 39.0744 47.7103 37.8369 47.6529 36.5816L47.4896 33.2916C47.4483 32.514 47.6978 31.7488 48.1896 31.145L50.2663 28.5783C51.0481 27.5971 51.4738 26.3796 51.4738 25.125C51.4738 23.8704 51.0481 22.6529 50.2663 21.6716ZM48.4463 27.1083L46.3696 29.675C45.5226 30.7294 45.091 32.0574 45.1563 33.4083L45.3196 36.6983C45.3558 37.4206 45.1442 38.1335 44.7198 38.7191C44.2955 39.3047 43.6839 39.7278 42.9863 39.9183L39.8129 40.7816C38.5028 41.1263 37.3701 41.9508 36.6396 43.0916L34.8196 45.845C34.426 46.4523 33.8361 46.9064 33.1482 47.1315C32.4603 47.3565 31.7161 47.3389 31.0396 47.0816L27.9596 45.915C26.6989 45.425 25.3003 45.425 24.0396 45.915L20.9596 47.0816C20.2835 47.3425 19.5381 47.3619 18.8493 47.1366C18.1606 46.9113 17.5708 46.455 17.1796 45.845L15.3596 43.0916C14.6291 41.9508 13.4964 41.1263 12.1863 40.7816L9.01294 39.9183C8.31532 39.7278 7.7037 39.3047 7.27936 38.7191C6.85502 38.1335 6.64342 37.4206 6.67961 36.6983L6.84294 33.4083C6.90823 32.0574 6.47661 30.7294 5.62961 29.675L3.55294 27.1083C3.0999 26.5466 2.85283 25.8466 2.85283 25.125C2.85283 24.4033 3.0999 23.7034 3.55294 23.1416L5.62961 20.575C6.47661 19.5206 6.90823 18.1925 6.84294 16.8416L6.67961 13.5516C6.64342 12.8294 6.85502 12.1164 7.27936 11.5308C7.7037 10.9452 8.31532 10.5222 9.01294 10.3316L12.1863 9.46831C13.4964 9.12367 14.6291 8.29914 15.3596 7.15831L17.1796 4.40498C17.4642 3.95829 17.8575 3.59121 18.3228 3.33816C18.7881 3.08512 19.31 2.95442 19.8396 2.95831C20.2226 2.9601 20.602 3.03125 20.9596 3.16831L24.0396 4.33498C25.2989 4.83275 26.7003 4.83275 27.9596 4.33498L31.0396 3.16831C31.7157 2.90744 32.4611 2.88804 33.1499 3.11337C33.8386 3.3387 34.4284 3.79494 34.8196 4.40498L36.6396 7.15831C37.3701 8.29914 38.5028 9.12367 39.8129 9.46831L42.9863 10.3316C43.6839 10.5222 44.2955 10.9452 44.7198 11.5308C45.1442 12.1164 45.3558 12.8294 45.3196 13.5516L45.1563 16.8416C45.091 18.1925 45.5226 19.5206 46.3696 20.575L48.4463 23.1416C48.8993 23.7034 49.1464 24.4033 49.1464 25.125C49.1464 25.8466 48.8993 26.5466 48.4463 27.1083Z" fill="#0077FF"/>
<path d="M35.4731 17.3083L18.1831 34.5983C17.9634 34.818 17.6655 34.9414 17.3548 34.9414C17.0441 34.9414 16.7461 34.818 16.5265 34.5983C16.3068 34.3786 16.1834 34.0807 16.1834 33.77C16.1834 33.4593 16.3068 33.1613 16.5265 32.9416L33.8165 15.6516C34.0361 15.432 34.3341 15.3085 34.6448 15.3085C34.9555 15.3085 35.2534 15.432 35.4731 15.6516C35.6928 15.8713 35.8162 16.1693 35.8162 16.48C35.8162 16.7907 35.6928 17.0886 35.4731 17.3083ZM33.4198 27.6683C32.4553 27.6683 31.5124 27.9543 30.7105 28.4902C29.9085 29.026 29.2834 29.7877 28.9143 30.6788C28.5452 31.5698 28.4487 32.5504 28.6368 33.4964C28.825 34.4423 29.2895 35.3113 29.9715 35.9933C30.6535 36.6753 31.5224 37.1398 32.4684 37.3279C33.4144 37.5161 34.3949 37.4195 35.286 37.0504C36.1771 36.6813 36.9387 36.0563 37.4746 35.2543C38.0104 34.4523 38.2965 33.5095 38.2965 32.545C38.2903 31.2535 37.7746 30.0167 36.8613 29.1034C35.9481 28.1902 34.7113 27.6744 33.4198 27.6683ZM33.4198 35.0883C32.9168 35.0883 32.425 34.9391 32.0068 34.6597C31.5885 34.3802 31.2626 33.983 31.0701 33.5183C30.8776 33.0535 30.8272 32.5422 30.9253 32.0488C31.0235 31.5554 31.2657 31.1023 31.6214 30.7466C31.9771 30.3909 32.4303 30.1486 32.9236 30.0505C33.417 29.9524 33.9284 30.0027 34.3931 30.1952C34.8578 30.3877 35.255 30.7137 35.5345 31.132C35.814 31.5502 35.9631 32.042 35.9631 32.545C35.9613 33.2189 35.6927 33.8648 35.2162 34.3413C34.7396 34.8179 34.0938 35.0865 33.4198 35.0883ZM18.5798 12.8283C17.6153 12.8283 16.6724 13.1143 15.8705 13.6502C15.0685 14.186 14.4434 14.9477 14.0743 15.8388C13.7052 16.7298 13.6087 17.7104 13.7968 18.6564C13.985 19.6023 14.4495 20.4713 15.1315 21.1533C15.8135 21.8353 16.6824 22.2998 17.6284 22.4879C18.5744 22.6761 19.5549 22.5795 20.446 22.2104C21.3371 21.8413 22.0987 21.2163 22.6346 20.4143C23.1704 19.6123 23.4565 18.6695 23.4565 17.705C23.4503 16.4135 22.9346 15.1767 22.0213 14.2634C21.1081 13.3502 19.8713 12.8344 18.5798 12.8283ZM18.5798 20.2483C18.0768 20.2483 17.585 20.0991 17.1668 19.8197C16.7485 19.5402 16.4226 19.143 16.2301 18.6783C16.0376 18.2135 15.9872 17.7022 16.0853 17.2088C16.1835 16.7154 16.4257 16.2623 16.7814 15.9066C17.1371 15.5509 17.5903 15.3086 18.0836 15.2105C18.577 15.1124 19.0884 15.1627 19.5531 15.3552C20.0178 15.5477 20.415 15.8737 20.6945 16.292C20.974 16.7102 21.1231 17.202 21.1231 17.705C21.1213 18.3789 20.8527 19.0248 20.3762 19.5013C19.8996 19.9779 19.2538 20.2465 18.5798 20.2483Z" fill="#0077FF"/>
</svg>
