<svg width="54" height="52" viewBox="0 0 54 52" fill="none" xmlns="http://www.w3.org/2000/svg">
<path fill-rule="evenodd" clip-rule="evenodd" d="M12.6563 32.0312L9.80859 31.9258C9.59766 31.9258 9.49219 31.9258 9.38672 31.8203L6.96094 30.0273C6.85547 29.9219 6.75 29.8164 6.75 29.6055C6.75 29.3945 6.75 29.289 6.85547 29.1836L15.3984 17.793C15.3984 17.6875 15.6094 17.582 15.7148 17.582C15.9258 17.4765 16.1367 17.582 16.2422 17.6875L20.5664 20.8515C20.7773 21.0625 20.8828 21.4844 20.6719 21.8008L13.1836 31.7148C13.0781 31.9258 12.8672 32.0312 12.6563 32.0312ZM10.0195 30.6601L12.3398 30.7656L19.3008 21.4844L16.0313 19.0586L8.22656 29.3945L10.0195 30.6601Z" fill="#0077FF"/>
<path fill-rule="evenodd" clip-rule="evenodd" d="M20.1445 22.0117C20.0391 22.0117 19.9336 22.0117 19.7227 21.9062L15.5039 18.6367C15.293 18.5312 15.1875 18.3203 15.1875 18.1094C15.293 17.7929 15.3984 16.1054 15.6094 14.7344V14.1015C15.7148 13.6797 15.9258 13.4687 16.3477 13.4687C16.6641 13.5742 16.875 13.7851 16.875 14.207V14.8398C16.6641 16.1054 16.5586 17.2656 16.5586 17.8984L20.25 20.6406C20.7773 20.4297 21.9375 20.0078 22.9922 19.5859C23.7305 19.2695 24.5742 18.9531 24.8906 18.7422L28.793 13.5742C29.0039 13.3633 29.4258 13.2578 29.6367 13.4687C29.9531 13.6797 29.9531 14.1015 29.7422 14.3125L25.8398 19.6914C25.7344 19.7969 25.7344 19.7969 24.8906 20.1133C24.5742 20.3242 24.0469 20.5351 23.5195 20.7461C22.2539 21.1679 20.6719 21.8008 20.4609 22.0117H20.1445ZM25.9453 11.3594C25.8398 11.3594 25.7344 11.3594 25.6289 11.2539L23.8359 9.88279C23.5195 9.67185 23.4141 9.35545 23.625 9.03904C23.8359 8.72263 24.2578 8.72263 24.5742 8.93357L26.3672 10.1992C26.5781 10.4101 26.6836 10.832 26.4727 11.1484C26.3672 11.2539 26.1562 11.3594 25.9453 11.3594Z" fill="#0077FF"/>
<path fill-rule="evenodd" clip-rule="evenodd" d="M22.8867 18.4258C22.7812 18.4258 22.6758 18.4258 22.5703 18.3203L19.0898 15.789C18.7734 15.5781 18.7734 15.1562 18.9844 14.8398L20.4609 12.8359C20.5664 12.7305 20.7773 12.625 20.8828 12.625C21.0937 12.5195 21.1992 12.625 21.4102 12.7305L24.7852 15.2617C25.1016 15.4726 25.1016 15.8945 24.8906 16.1055L23.4141 18.2148C23.3086 18.3203 23.2031 18.4258 22.9922 18.4258H22.8867ZM20.3555 15.1562L22.7812 16.9492L23.5195 15.8945L21.0937 14.1015L20.3555 15.1562ZM9.80859 31.9258C9.59766 31.9258 9.49219 31.9258 9.38672 31.8203C9.07031 31.6094 9.07031 31.1875 9.28125 30.9765L15.8203 22.1172C16.0312 21.9062 16.4531 21.8008 16.7695 22.0117C16.9805 22.2226 17.0859 22.6445 16.875 22.9609L10.2305 31.7148C10.125 31.8203 9.91406 31.9258 9.80859 31.9258ZM9.38672 51.6484H0.632812C0.316406 51.6484 0 51.332 0 51.0156V33.7187C0 33.4023 0.316406 33.0859 0.632812 33.0859H9.38672C9.70312 33.0859 10.0195 33.4023 10.0195 33.7187V51.0156C10.0195 51.332 9.70312 51.6484 9.38672 51.6484ZM1.26562 50.3828H8.75391V34.3515H1.26562V50.3828Z" fill="#0077FF"/>
<path fill-rule="evenodd" clip-rule="evenodd" d="M21.4102 51.9648C19.8282 51.9648 18.3517 51.4375 16.5587 50.8047C15.7149 50.4883 14.7657 50.1719 13.711 49.8555C13.2892 49.75 11.3907 49.75 10.336 49.75H9.38681C9.0704 49.75 8.754 49.4336 8.754 49.1172C8.754 48.6953 9.0704 48.4844 9.38681 48.4844H10.336C12.0235 48.4844 13.5001 48.4844 14.1329 48.6953C15.1876 49.0117 16.1368 49.3281 16.9806 49.5391C20.2501 50.6992 22.0431 51.4375 25.629 49.2227L40.5001 40.4688C41.0274 40.1523 41.2384 39.7305 41.2384 39.3086C41.2384 38.7812 40.922 38.2539 40.3946 38.043C40.0782 37.832 39.6563 37.7266 39.129 38.043L23.836 47.1133C22.4649 47.957 20.7774 47.7461 19.4063 46.5859C18.1407 45.5312 17.4024 43.8438 17.8243 42.7891C17.9298 42.3672 18.3517 41.7344 19.6173 41.7344H26.3673C27.211 41.7344 27.8438 41.1016 27.8438 40.3633C27.8438 39.5195 27.211 38.8867 26.3673 38.8867H18.6681C18.3517 38.8867 18.1407 38.6758 18.0352 38.3594C17.9298 37.7266 17.6134 37.3047 17.086 36.9883C15.0821 35.7227 10.9688 36.6719 9.59775 37.0938C9.28134 37.1992 8.85947 36.9883 8.754 36.6719C8.64853 36.25 8.85947 35.9336 9.17587 35.8281C9.49228 35.7227 14.8712 34.1406 17.7188 35.8281C18.4571 36.25 18.879 36.8828 19.1954 37.6211H26.3673C27.8438 37.6211 29.004 38.8867 29.004 40.3633C29.004 41.7344 27.8438 43 26.3673 43H19.6173C19.3009 43 19.0899 43.1055 18.9845 43.2109C18.7735 43.7383 19.3009 44.8984 20.2501 45.6367C20.7774 46.0586 21.9376 46.7969 23.2032 46.0586L38.4962 36.9883C39.2345 36.4609 40.1837 36.4609 41.0274 36.8828C41.8712 37.4102 42.504 38.3594 42.504 39.3086C42.504 40.1523 42.0821 40.9961 41.1329 41.5234L26.2618 50.3828C24.3634 51.543 22.7813 51.9648 21.4102 51.9648ZM53.3673 19.1641H44.6134C44.297 19.1641 43.9806 18.8477 43.9806 18.5312V1.23438C43.9806 0.917969 44.297 0.601562 44.6134 0.601562H53.3673C53.6837 0.601562 54.0001 0.917969 54.0001 1.23438V18.5312C54.0001 18.8477 53.6837 19.1641 53.3673 19.1641ZM45.2462 17.8984H52.7345V1.86719H45.2462V17.8984Z" fill="#0077FF"/>
<path fill-rule="evenodd" clip-rule="evenodd" d="M39.7617 17.1602C38.4961 17.1602 37.2305 16.9492 36.2812 16.4219C35.543 16 35.1211 15.3672 34.8047 14.6289H27.6328C26.1562 14.6289 24.9961 13.3633 24.9961 11.8867C24.9961 10.5156 26.1562 9.25 27.6328 9.25H34.3828C34.6992 9.25 34.9102 9.14453 35.0156 9.03907C35.2266 8.51172 34.6992 7.35157 33.75 6.61328C33.2227 6.19141 32.0625 5.45313 30.7969 6.19141L15.5039 15.2617C14.7656 15.7891 13.8164 15.7891 12.9727 15.3672C12.1289 14.8398 11.4961 13.8906 11.4961 12.9414C11.4961 12.0977 11.918 11.2539 12.8672 10.7266L27.7383 1.86719C31.8516 -0.558591 34.0664 0.285159 37.4414 1.44532C38.2852 1.76172 39.2344 2.07813 40.2891 2.39453C40.7109 2.5 42.6094 2.5 43.6641 2.5H44.6133C44.9297 2.5 45.2461 2.81641 45.2461 3.13282C45.2461 3.55469 44.9297 3.76563 44.6133 3.76563H43.6641C41.9766 3.76563 40.5 3.76563 39.8672 3.55469C38.8125 3.23828 37.8633 2.92188 37.0195 2.71094C33.75 1.55078 31.957 0.812503 28.3711 3.02735L13.5 11.7813C12.9727 12.0977 12.7617 12.5195 12.7617 12.9414C12.7617 13.4688 13.0781 13.9961 13.6055 14.207C13.9219 14.418 14.3438 14.5234 14.8711 14.207L30.1641 5.13672C31.5352 4.29297 33.2227 4.50391 34.5938 5.66407C35.8594 6.71875 36.5977 8.40625 36.1758 9.46094C36.0703 9.88282 35.6484 10.5156 34.3828 10.5156H27.6328C26.7891 10.5156 26.1562 11.1484 26.1562 11.8867C26.1562 12.7305 26.7891 13.3633 27.6328 13.3633H35.332C35.6484 13.3633 35.8594 13.5742 35.9648 13.8906C36.0703 14.5234 36.3867 14.9453 36.9141 15.2617C38.8125 16.5273 43.0312 15.5781 44.4023 15.1563C44.7188 15.0508 45.1406 15.2617 45.2461 15.5781C45.3516 16 45.1406 16.3164 44.8242 16.4219C44.6133 16.4219 42.1875 17.1602 39.7617 17.1602Z" fill="#0077FF"/>
</svg>
