<svg width="56" height="50" viewBox="0 0 56 50" fill="none" xmlns="http://www.w3.org/2000/svg">
<path d="M39.7812 45.875C39.5409 45.875 39.3104 45.7795 39.1404 45.6096C38.9705 45.4396 38.875 45.2091 38.875 44.9688V34.0938C38.875 33.9161 38.9276 33.7421 39.0254 33.5935L40.7872 30.9382C40.852 30.8368 40.9363 30.7493 41.0353 30.6809C41.1343 30.6124 41.2459 30.5644 41.3636 30.5395C41.4814 30.5147 41.6029 30.5135 41.7211 30.5361C41.8393 30.5587 41.9518 30.6046 42.052 30.6712C42.1523 30.7378 42.2383 30.8236 42.305 30.9238C42.3717 31.0239 42.4178 31.1363 42.4406 31.2545C42.4634 31.3726 42.4625 31.4942 42.4378 31.6119C42.4132 31.7297 42.3653 31.8414 42.297 31.9405L40.6875 34.3674V44.9688C40.6875 45.2091 40.592 45.4396 40.4221 45.6096C40.2521 45.7795 40.0216 45.875 39.7812 45.875ZM16.2188 45.875C15.9784 45.875 15.7479 45.7795 15.5779 45.6096C15.408 45.4396 15.3125 45.2091 15.3125 44.9688V34.3674L13.7266 31.9749C13.6583 31.8759 13.6104 31.7642 13.5857 31.6464C13.5611 31.5286 13.5601 31.4071 13.5829 31.2889C13.6057 31.1708 13.6518 31.0583 13.7186 30.9582C13.7853 30.8581 13.8713 30.7722 13.9715 30.7056C14.0718 30.6391 14.1843 30.5932 14.3025 30.5706C14.4207 30.5479 14.5422 30.5491 14.6599 30.5739C14.7777 30.5988 14.8893 30.6469 14.9883 30.7153C15.0872 30.7838 15.1716 30.8712 15.2364 30.9726L16.9746 33.5935C17.0725 33.742 17.1248 33.9159 17.125 34.0938V44.9688C17.125 45.2091 17.0295 45.4396 16.8596 45.6096C16.6896 45.7795 16.4591 45.875 16.2188 45.875ZM28 45.875C27.7596 45.875 27.5291 45.7795 27.3592 45.6096C27.1892 45.4396 27.0938 45.2091 27.0938 44.9688V26.8438C27.0938 26.6034 27.1892 26.3729 27.3592 26.2029C27.5291 26.033 27.7596 25.9375 28 25.9375C28.2404 25.9375 28.4709 26.033 28.6408 26.2029C28.8108 26.3729 28.9062 26.6034 28.9062 26.8438V44.9688C28.9062 45.2091 28.8108 45.4396 28.6408 45.6096C28.4709 45.7795 28.2404 45.875 28 45.875ZM52.4688 49.5H3.53125C3.2909 49.5 3.06039 49.4045 2.89043 49.2346C2.72048 49.0646 2.625 48.8341 2.625 48.5938C2.625 48.3534 2.72048 48.1229 2.89043 47.9529C3.06039 47.783 3.2909 47.6875 3.53125 47.6875H52.4688C52.7091 47.6875 52.9396 47.783 53.1096 47.9529C53.2795 48.1229 53.375 48.3534 53.375 48.5938C53.375 48.8341 53.2795 49.0646 53.1096 49.2346C52.9396 49.4045 52.7091 49.5 52.4688 49.5Z" fill="#0077FF"/>
<path d="M10.7812 49.5C10.5409 49.5 10.3104 49.4045 10.1404 49.2346C9.97048 49.0646 9.875 48.8341 9.875 48.5937V32.7017C9.875 29.5117 12.3255 26.0571 15.3361 25.0041L22.7891 22.3959L23.2802 18.4627C23.2924 18.3425 23.3285 18.226 23.3863 18.1199C23.4441 18.0138 23.5226 17.9204 23.6171 17.8451C23.7116 17.7698 23.8202 17.7142 23.9365 17.6815C24.0528 17.6487 24.1744 17.6396 24.2943 17.6546C24.4142 17.6696 24.5299 17.7084 24.6345 17.7687C24.7392 17.8291 24.8308 17.9097 24.9038 18.006C24.9768 18.1022 25.0299 18.2121 25.0599 18.3291C25.0898 18.4461 25.0961 18.568 25.0782 18.6875L24.5164 23.1789C24.4955 23.3463 24.4282 23.5046 24.3222 23.6359C24.2162 23.7672 24.0757 23.8663 23.9164 23.922L15.9342 26.7169C13.6323 27.5198 11.6875 30.2621 11.6875 32.7017V48.5937C11.6875 48.8341 11.592 49.0646 11.4221 49.2346C11.2521 49.4045 11.0216 49.5 10.7812 49.5ZM45.2188 49.5C44.9784 49.5 44.7479 49.4045 44.5779 49.2346C44.408 49.0646 44.3125 48.8341 44.3125 48.5937V32.7017C44.3125 30.2621 42.3677 27.5198 40.0658 26.7132L32.0836 23.9202C31.9243 23.8644 31.7837 23.7654 31.6778 23.6341C31.5718 23.5028 31.5045 23.3445 31.4836 23.1771L30.9199 18.6821C30.9021 18.5626 30.9084 18.4407 30.9383 18.3237C30.9683 18.2066 31.0214 18.0968 31.0944 18.0005C31.1674 17.9043 31.259 17.8236 31.3636 17.7633C31.4683 17.7029 31.584 17.6641 31.7039 17.6491C31.8238 17.6342 31.9454 17.6433 32.0617 17.676C32.178 17.7087 32.2866 17.7644 32.3811 17.8397C32.4756 17.915 32.554 18.0084 32.6119 18.1145C32.6697 18.2205 32.7058 18.3371 32.7179 18.4573L33.2109 22.3959L40.6639 25.0041C43.6745 26.0571 46.125 29.5117 46.125 32.7017V48.5937C46.125 48.8341 46.0295 49.0646 45.8596 49.2346C45.6896 49.4045 45.4591 49.5 45.2188 49.5Z" fill="#0077FF"/>
<path d="M28.0008 20.5707C27.7605 20.5707 27.5299 20.4752 27.36 20.3052C27.19 20.1353 27.0946 19.9048 27.0946 19.6644C27.0946 19.4241 27.19 19.1936 27.36 19.0236C27.5299 18.8537 27.7605 18.7582 28.0008 18.7582C30.0217 18.7582 33.7845 18.7582 33.8026 8.84199C33.8062 7.1038 33.6794 5.41093 32.1097 3.83949C31.1854 2.91512 29.8024 2.44568 28.0008 2.44568C26.1992 2.44568 24.8162 2.91512 23.8901 3.8413C22.3222 5.41274 22.1936 7.1038 22.1972 8.8438C22.2062 13.5255 23.0599 16.5596 24.7347 17.8592C24.9246 18.0068 25.048 18.2237 25.0779 18.4623C25.1079 18.701 25.0418 18.9417 24.8942 19.1316C24.7466 19.3214 24.5296 19.4449 24.291 19.4748C24.0524 19.5047 23.8117 19.4386 23.6218 19.2911C21.4522 17.6072 20.3919 14.1925 20.3829 8.84743C20.3792 6.8863 20.5478 4.62249 22.605 2.56168C23.8864 1.28024 25.7007 0.633179 28.0008 0.633179C30.3009 0.633179 32.1152 1.28024 33.393 2.55987C35.452 4.62249 35.6206 6.8863 35.6169 8.84743C35.6006 16.9547 33.2516 20.5707 28.0008 20.5707ZM27.9954 28.0255C27.7668 28.026 27.5466 27.9399 27.3791 27.7844L23.0019 23.7299C22.9146 23.6489 22.844 23.5516 22.7943 23.4434C22.7445 23.3352 22.7166 23.2183 22.7121 23.0993C22.7075 22.9803 22.7265 22.8616 22.7678 22.7499C22.8091 22.6382 22.8721 22.5358 22.953 22.4484C23.1164 22.272 23.3433 22.1677 23.5836 22.1586C23.7026 22.154 23.8213 22.173 23.933 22.2143C24.0446 22.2556 24.1471 22.3186 24.2344 22.3995L27.9972 25.8849L31.769 22.3995C31.9457 22.2363 32.1799 22.15 32.4202 22.1595C32.6605 22.169 32.8872 22.2736 33.0504 22.4502C33.2136 22.6269 33.3 22.8612 33.2905 23.1015C33.2809 23.3418 33.1763 23.5685 32.9997 23.7317L28.6116 27.7862C28.4435 27.9404 28.2235 28.0258 27.9954 28.0255Z" fill="#0077FF"/>
<path d="M31.2861 9.47277C28.7105 9.47277 26.0262 8.56471 24.549 7.23433C24.4579 7.15547 24.3834 7.05923 24.3299 6.95123C24.2764 6.84324 24.245 6.72566 24.2375 6.60537C24.23 6.48509 24.2466 6.36452 24.2862 6.25072C24.3259 6.13692 24.3879 6.03217 24.4685 5.94261C24.5491 5.85305 24.6468 5.78047 24.7559 5.72913C24.8649 5.67778 24.9831 5.6487 25.1035 5.64358C25.2239 5.63846 25.3441 5.65741 25.4571 5.69932C25.5701 5.74122 25.6736 5.80525 25.7616 5.88764C27.5469 7.49171 31.8298 8.32908 34.2821 7.01502C34.4941 6.90157 34.7425 6.87698 34.9726 6.94667C35.2027 7.01635 35.3957 7.17459 35.5092 7.38658C35.6226 7.59857 35.6472 7.84695 35.5775 8.07706C35.5079 8.30718 35.3496 8.5002 35.1376 8.61364C34.0193 9.20995 32.6672 9.47277 31.2861 9.47277ZM14.4062 21.95C14.1659 21.95 13.9354 21.8545 13.7654 21.6846C13.5955 21.5146 13.5 21.2841 13.5 21.0438V17.7613C13.4999 17.6213 13.5322 17.483 13.5945 17.3576C13.6567 17.2321 13.7472 17.1228 13.8589 17.0381C14.7832 16.3403 15.3125 15.2891 15.3125 14.1563V11.4375C15.3125 9.43833 13.6867 7.81252 11.6875 7.81252C9.68831 7.81252 8.0625 9.43833 8.0625 11.4375V14.1563C8.0625 15.2891 8.59175 16.3403 9.51613 17.0381C9.62777 17.1228 9.71827 17.2321 9.78054 17.3576C9.84281 17.483 9.87514 17.6213 9.875 17.7613V21.0438C9.875 21.2841 9.77952 21.5146 9.60957 21.6846C9.43961 21.8545 9.2091 21.95 8.96875 21.95C8.7284 21.95 8.49789 21.8545 8.32793 21.6846C8.15798 21.5146 8.0625 21.2841 8.0625 21.0438V18.1873C6.90431 17.1541 6.25 15.7078 6.25 14.1563V11.4375C6.25 8.43964 8.68963 6.00002 11.6875 6.00002C14.6854 6.00002 17.125 8.43964 17.125 11.4375V14.1563C17.125 15.7078 16.4707 17.1541 15.3125 18.1873V21.0438C15.3125 21.2841 15.217 21.5146 15.0471 21.6846C14.8771 21.8545 14.6466 21.95 14.4062 21.95Z" fill="#0077FF"/>
<path d="M12.5992 19.5013C12.3746 19.5011 12.1581 19.4175 11.9917 19.2667C11.8252 19.1159 11.7207 18.9087 11.6983 18.6852C11.676 18.4618 11.7374 18.238 11.8707 18.0572C12.004 17.8765 12.1997 17.7516 12.4197 17.7069C13.2361 17.5368 13.9691 17.0911 14.4959 16.4446C15.0226 15.7981 15.3109 14.9901 15.3125 14.1562C15.3125 13.9159 15.408 13.6854 15.5779 13.5154C15.7479 13.3455 15.9784 13.25 16.2188 13.25C16.4591 13.25 16.6896 13.3455 16.8596 13.5154C17.0295 13.6854 17.125 13.9159 17.125 14.1562C17.1218 15.4075 16.6886 16.6197 15.8979 17.5895C15.1072 18.5594 14.0072 19.2279 12.7823 19.4832C12.722 19.4955 12.6607 19.5016 12.5992 19.5013ZM1.71875 44.0625C1.4784 44.0625 1.24789 43.967 1.07793 43.7971C0.90798 43.6271 0.8125 43.3966 0.8125 43.1562V27.6956C0.8125 25.1545 2.31688 22.8708 4.64413 21.8775L8.60806 20.1574C8.76097 20.0915 8.92903 20.0688 9.09394 20.0919C9.25885 20.1149 9.41428 20.1827 9.54331 20.2879L11.6911 22.0479L13.8353 20.3043C13.9636 20.1997 14.1181 20.1322 14.282 20.1092C14.4459 20.0862 14.613 20.1085 14.7651 20.1737L18.7309 21.8757C18.8402 21.9227 18.9393 21.9908 19.0223 22.0761C19.1054 22.1614 19.1708 22.2622 19.2149 22.3727C19.259 22.4833 19.2809 22.6015 19.2793 22.7205C19.2778 22.8396 19.2528 22.9571 19.2057 23.0665C19.1587 23.1759 19.0906 23.2749 19.0054 23.358C18.9201 23.441 18.8193 23.5065 18.7087 23.5506C18.5981 23.5947 18.4799 23.6165 18.3609 23.615C18.2419 23.6134 18.1243 23.5884 18.0149 23.5414L14.5531 22.0551L12.2603 23.9202C12.0984 24.0522 11.896 24.1241 11.6872 24.1237C11.4784 24.1234 11.2761 24.0509 11.1147 23.9184L8.82194 22.0406L5.36188 23.5432C4.54825 23.89 3.85479 24.4687 3.36806 25.2072C2.88133 25.9457 2.62289 26.8112 2.625 27.6956V43.1562C2.625 43.3966 2.52952 43.6271 2.35957 43.7971C2.18961 43.967 1.9591 44.0625 1.71875 44.0625ZM15.2019 13.0869C13.3812 13.0818 11.6183 12.4472 10.2121 11.2907C10.0301 11.1382 9.91517 10.9203 9.89212 10.6839C9.86908 10.4475 9.93975 10.2116 10.0889 10.0268C10.2381 9.84198 10.4538 9.72312 10.6898 9.69577C10.9257 9.66843 11.1629 9.73478 11.3504 9.88056C12.5104 10.8158 13.877 11.2852 15.3089 11.2744C15.2656 10.3426 14.8653 9.46325 14.191 8.81869C13.5168 8.17413 12.6203 7.81382 11.6875 7.8125C9.68831 7.8125 8.0625 9.43831 8.0625 11.4375V12.1081C8.0625 12.3485 7.96702 12.579 7.79707 12.7489C7.62711 12.9189 7.3966 13.0144 7.15625 13.0144C6.9159 13.0144 6.68539 12.9189 6.51543 12.7489C6.34548 12.579 6.25 12.3485 6.25 12.1081V11.4375C6.25 8.43963 8.68962 6 11.6875 6C14.6854 6 17.125 8.43963 17.125 11.4375V12.0719C17.1251 12.2878 17.048 12.4966 16.9078 12.6607C16.7676 12.8249 16.5734 12.9336 16.3601 12.9672C15.9778 13.0376 15.5906 13.0776 15.2019 13.0869Z" fill="#0077FF"/>
<path d="M10.2827 8.04813C10.1481 8.04826 10.0151 8.0184 9.8935 7.96072C9.77185 7.90303 9.66459 7.81896 9.5795 7.71463C9.257 7.31551 9.05386 6.83338 8.99351 6.32382C8.93315 5.81426 9.01804 5.29802 9.23837 4.83461C9.45871 4.3712 9.80553 3.9795 10.2388 3.70466C10.6722 3.42983 11.1743 3.28305 11.6874 3.28125C12.1999 3.28278 12.7015 3.42892 13.1346 3.70286C13.5677 3.9768 13.9146 4.36741 14.1356 4.82978C14.3566 5.29214 14.4425 5.80749 14.3836 6.31654C14.3247 6.82559 14.1233 7.30769 13.8026 7.70738C13.6517 7.89461 13.4325 8.01421 13.1934 8.03988C12.9543 8.06554 12.7148 7.99516 12.5275 7.84422C12.3403 7.69328 12.2207 7.47414 12.195 7.23501C12.1694 6.99589 12.2397 6.75636 12.3907 6.56913C12.4987 6.43619 12.5669 6.27536 12.5873 6.10527C12.6076 5.93518 12.5794 5.7628 12.5058 5.60812C12.4322 5.45343 12.3162 5.32278 12.1714 5.2313C12.0265 5.13983 11.8587 5.09127 11.6874 5.09127C11.5161 5.09127 11.3483 5.13983 11.2035 5.2313C11.0587 5.32278 10.9427 5.45343 10.8691 5.60812C10.7955 5.7628 10.7672 5.93518 10.7876 6.10527C10.808 6.27536 10.8761 6.43619 10.9842 6.56913C11.0932 6.7017 11.1623 6.86257 11.1833 7.03294C11.2044 7.20332 11.1765 7.37615 11.1029 7.53126C11.0293 7.68636 10.9132 7.81733 10.7679 7.90885C10.6227 8.00038 10.4544 8.04869 10.2827 8.04813ZM47.0312 21.95C46.7908 21.95 46.5603 21.8545 46.3904 21.6846C46.2204 21.5146 46.1249 21.2841 46.1249 21.0438V17.7613C46.1248 17.6212 46.1571 17.483 46.2194 17.3575C46.2817 17.2321 46.3722 17.1227 46.4838 17.0381C47.4082 16.3403 47.9374 15.2891 47.9374 14.1562V11.4375C47.9374 9.43831 46.3116 7.8125 44.3124 7.8125C42.3133 7.8125 40.6874 9.43831 40.6874 11.4375V14.1562C40.6874 15.2891 41.2167 16.3403 42.1411 17.0381C42.2527 17.1227 42.3432 17.2321 42.4055 17.3575C42.4678 17.483 42.5001 17.6212 42.4999 17.7613V21.0438C42.4999 21.2841 42.4045 21.5146 42.2345 21.6846C42.0646 21.8545 41.834 21.95 41.5937 21.95C41.3533 21.95 41.1228 21.8545 40.9529 21.6846C40.7829 21.5146 40.6874 21.2841 40.6874 21.0438V18.1873C39.5293 17.1541 38.8749 15.7078 38.8749 14.1562V11.4375C38.8749 8.43962 41.3146 6 44.3124 6C47.3103 6 49.7499 8.43962 49.7499 11.4375V14.1562C49.7499 15.7078 49.0956 17.1541 47.9374 18.1873V21.0438C47.9374 21.2841 47.842 21.5146 47.672 21.6846C47.5021 21.8545 47.2715 21.95 47.0312 21.95Z" fill="#0077FF"/>
<path d="M45.2245 19.5013C44.9999 19.5011 44.7834 19.4175 44.6169 19.2667C44.4505 19.1159 44.3459 18.9087 44.3236 18.6852C44.3013 18.4618 44.3627 18.238 44.496 18.0572C44.6293 17.8765 44.8249 17.7516 45.045 17.7069C45.8614 17.5368 46.5944 17.0911 47.1211 16.4446C47.6478 15.7981 47.9362 14.9901 47.9378 14.1562C47.9378 13.9159 48.0332 13.6854 48.2032 13.5154C48.3732 13.3455 48.6037 13.25 48.844 13.25C49.0844 13.25 49.3149 13.3455 49.4848 13.5154C49.6548 13.6854 49.7503 13.9159 49.7503 14.1562C49.7471 15.4075 49.3138 16.6197 48.5232 17.5895C47.7325 18.5594 46.6325 19.2279 45.4075 19.4832C45.3473 19.4955 45.2859 19.5016 45.2245 19.5013ZM54.2815 44.0625C54.0412 44.0625 53.8107 43.967 53.6407 43.7971C53.4707 43.6271 53.3753 43.3966 53.3753 43.1562V27.6956C53.3753 25.8831 52.3041 24.2537 50.6438 23.545L47.1783 22.0406L44.8873 23.9202C44.7257 24.052 44.5235 24.1242 44.3149 24.1245C44.1063 24.1248 43.9039 24.0533 43.7418 23.922L41.449 22.0569L37.9871 23.5432C37.7663 23.6381 37.5167 23.6414 37.2934 23.5524C37.0701 23.4633 36.8913 23.2892 36.7963 23.0683C36.7014 22.8474 36.6981 22.5979 36.7871 22.3746C36.8762 22.1512 37.0503 21.9724 37.2712 21.8775L41.237 20.1756C41.3891 20.1103 41.5562 20.088 41.7201 20.111C41.884 20.134 42.0385 20.2015 42.1668 20.3061L44.311 22.0497L46.4588 20.2897C46.5875 20.184 46.743 20.1158 46.908 20.0928C47.073 20.0697 47.2412 20.0927 47.394 20.1593L51.3616 21.8811C52.4995 22.368 53.469 23.1789 54.1493 24.2128C54.8297 25.2467 55.1908 26.4579 55.1878 27.6956V43.1562C55.1878 43.3966 55.0923 43.6271 54.9223 43.7971C54.7524 43.967 54.5219 44.0625 54.2815 44.0625Z" fill="#0077FF"/>
</svg>
