<svg width="50" height="55" viewBox="0 0 50 55" fill="none" xmlns="http://www.w3.org/2000/svg">
<path d="M36.6016 41.8906C36.0194 41.8906 35.5469 42.3631 35.5469 42.9453C35.5469 43.5275 36.0194 44 36.6016 44C37.1838 44 37.6562 43.5275 37.6562 42.9453C37.6562 42.3631 37.1838 41.8906 36.6016 41.8906Z" fill="#0077FF"/>
<path d="M39.1984 38.4801L34.1855 36.8095L32.3859 33.2101C34.0071 31.56 35.1328 29.3765 35.5124 27.0992L35.7368 25.7539H37.6562C39.4009 25.7539 40.8203 24.3345 40.8203 22.5898V15.9453C40.8203 7.22199 33.7233 0.125 25 0.125C16.2543 0.125 9.17969 7.20164 9.17969 15.9453V22.5898C9.17969 23.9647 10.0615 25.1371 11.2891 25.5725V26.8086C11.2891 28.5533 12.7085 29.9727 14.4531 29.9727H15.3794C15.8352 30.9656 16.431 31.8881 17.1485 32.7121C17.2982 32.8836 17.4531 33.0503 17.6132 33.2121L15.8145 36.8095L10.8015 38.4802C4.97275 40.4238 0.742188 46.5598 0.742188 53.0703C0.742188 53.6528 1.21437 54.125 1.79688 54.125H48.2031C48.7855 54.125 49.2578 53.6528 49.2578 53.0703C49.2578 46.5598 45.0274 40.4238 39.1984 38.4801ZM38.7109 22.5898C38.7109 23.1714 38.2378 23.6445 37.6562 23.6445H36.0466C36.3147 21.5679 36.4934 19.358 36.5652 17.1814C36.5673 17.12 36.569 17.0603 36.5709 17H38.7109V22.5898ZM12.3438 23.6445C11.7622 23.6445 11.2891 23.1714 11.2891 22.5898V17H13.4299C13.4333 17.11 13.437 17.2205 13.4412 17.3318L13.4416 17.3431V17.344C13.5154 19.461 13.6917 21.6135 13.9537 23.6444H12.3438V23.6445ZM14.4531 27.8633C13.8716 27.8633 13.3984 27.3901 13.3984 26.8086V25.7539H14.2631L14.4875 27.0996C14.5307 27.3559 14.5828 27.6106 14.6438 27.8633H14.4531ZM13.4002 14.8906H11.3291C11.8633 7.822 17.7624 2.23438 25 2.23438C32.2054 2.23438 38.1304 7.82127 38.6708 14.8906H36.5999C36.5239 9.0659 31.7807 4.34375 25.944 4.34375H24.0562C18.2196 4.34375 13.4761 9.0659 13.4002 14.8906ZM24.0561 6.45312H25.9439C30.6699 6.45312 34.4949 10.3187 34.4922 15.0393C34.4922 15.3712 34.4896 15.6602 34.484 15.9232L34.4839 15.9335L33.1646 15.745C29.5808 15.2333 26.197 13.5414 23.6364 10.9808C23.4386 10.783 23.1703 10.6719 22.8906 10.6719C20.0582 10.6719 17.3468 11.9624 15.5544 14.1426C15.9961 9.84806 19.6267 6.45312 24.0561 6.45312ZM16.8304 27.8633C16.3024 26.1069 15.6983 20.9389 15.5648 17.6272L16.9843 15.7345C18.288 13.9968 20.3162 12.9171 22.4738 12.7932C25.3127 15.4949 28.9853 17.279 32.8664 17.8331L34.4191 18.055C34.3153 20.2577 34.1032 22.4681 33.7994 24.501L33.799 24.5032C33.7024 25.1567 33.6263 25.5774 33.4318 26.7522C32.8732 30.1024 30.3734 33.132 27.0734 33.9571C25.7121 34.2961 24.2884 34.2961 22.9271 33.9571C20.8666 33.4419 18.9772 32.0162 17.7579 29.9727H19.908C20.3433 31.2002 21.5156 32.082 22.8906 32.082H25C26.7481 32.082 28.1641 30.6662 28.1641 28.918C28.1641 27.1733 26.7447 25.7539 25 25.7539H22.8906C21.485 25.7539 20.3301 26.6618 19.9062 27.8633H16.8304ZM22.8019 36.0915C23.5247 36.2442 24.2613 36.3214 25 36.3219C25.577 36.3219 26.1541 36.2736 26.7247 36.1799L24.8611 38.1508L22.8019 36.0915ZM23.4111 39.6841L20.0659 43.2217C19.1442 41.4575 18.3549 39.6273 17.7045 37.7461L18.9608 35.2336L23.4111 39.6841ZM30.8605 34.8763L32.2953 37.746C31.6449 39.6278 30.8555 41.4586 29.9336 43.2233L26.3532 39.6429L30.8605 34.8763ZM21.8359 28.918C21.8359 28.3357 22.3082 27.8633 22.8906 27.8633H25C25.5816 27.8633 26.0547 28.3364 26.0547 28.918C26.0547 29.5004 25.5823 29.9727 25 29.9727H22.8906C22.3091 29.9727 21.8359 29.4995 21.8359 28.918ZM2.89375 52.0156C3.31172 46.7908 6.78892 42.0418 11.4686 40.4812L15.9082 39.0017C16.7226 41.2534 17.7269 43.4317 18.9101 45.5134L18.916 45.524L18.9161 45.5242C19.7859 47.0523 20.75 48.5247 21.803 49.9327L23.1005 52.0156H2.89375ZM25 51.0755L23.5696 48.7791C23.5536 48.7534 23.5365 48.7284 23.5184 48.7041C22.6639 47.5636 21.8706 46.3785 21.142 45.1538L24.9033 41.1762L28.8666 45.1395C28.1357 46.3692 27.3397 47.5591 26.4818 48.7039C26.4302 48.7728 26.5035 48.6642 25 51.0755ZM26.8995 52.0156L28.1969 49.9328C29.2581 48.514 30.229 47.0299 31.104 45.4892C31.1093 45.4799 31.1142 45.4704 31.1195 45.4612L31.1214 45.4578C32.2911 43.393 33.2848 41.2334 34.0918 39.0017L38.5313 40.4812C43.2111 42.0418 46.6883 46.7908 47.1063 52.0156H26.8995Z" fill="#0077FF"/>
<path d="M43.9374 47.7474C43.2326 46.3365 42.2002 45.0831 40.9517 44.1227C40.49 43.7674 39.8278 43.8538 39.4727 44.3155C39.1175 44.7773 39.2039 45.4394 39.6655 45.7946C40.6626 46.5617 41.4872 47.5629 42.0503 48.69C42.3111 49.212 42.945 49.4221 43.4651 49.1622C43.9862 48.9019 44.1976 48.2685 43.9374 47.7474Z" fill="#0077FF"/>
</svg>
