<svg width="49" height="50" viewBox="0 0 49 50" fill="none" xmlns="http://www.w3.org/2000/svg">
<path d="M46.6847 25.2815C47.3654 23.2021 46.7873 21.7111 46.1791 20.8222C45.2197 19.4364 43.4764 18.5835 41.397 18.4824C40.8947 18.4575 39.7111 18.4338 38.5664 18.4108C37.7089 18.394 36.9203 18.3783 36.603 18.3649C34.5215 18.2822 32.4448 18.107 30.3789 17.8397C30.3387 17.8347 30.2701 17.8263 29.1726 17.7861C29.2875 14.4204 29.3495 10.9873 29.3613 7.32419C29.369 4.18743 27.1073 1.6134 24.2117 1.46372C21.3667 1.31901 18.8589 3.51751 18.3723 6.57197C17.7676 10.3861 17.0971 14.1895 16.361 17.9805C16.0624 19.511 15.087 20.2904 13.8517 21.2773C13.3778 21.6559 12.8878 22.0475 12.41 22.5069L12.1164 22.7894V44.5891L12.5562 44.8716C13.409 45.3608 14.3651 45.6418 15.347 45.6916C16.3025 45.8471 17.2313 46.1363 18.1063 46.5506C18.7495 46.8307 19.4081 47.074 20.0789 47.2795C21.8398 47.7867 23.6096 47.7928 25.1764 47.7928H25.2978C27.311 47.7879 37.387 47.7588 38.0229 47.696C39.1235 47.6157 40.1935 47.2973 41.1589 46.7627C41.9165 46.3097 42.5673 45.6981 43.0665 44.97C43.5657 44.242 43.9015 43.4145 44.051 42.5445C44.2418 41.5667 44.2009 40.5578 43.9316 39.5987C44.6162 38.7699 45.0914 37.7885 45.3172 36.7374C45.5429 35.6863 45.5125 34.5964 45.2285 33.5595C46.0406 32.6269 46.5662 31.4798 46.7422 30.2558C46.9201 29.0411 46.671 27.8023 46.0374 26.7508C46.3035 26.2848 46.5204 25.7924 46.6847 25.2815ZM44.126 27.3327C44.4222 27.7048 44.6388 28.1338 44.7624 28.5931C44.886 29.0524 44.914 29.5322 44.8446 30.0028C44.6901 31.0126 44.205 31.9426 43.4653 32.6472L43.0098 33.0963L43.2502 33.6893C43.5859 34.5448 43.6511 35.4828 43.437 36.3766C43.2569 37.2494 42.8188 38.0481 42.1794 38.6689L41.7074 39.1183L41.9524 39.722C42.2608 40.5063 42.3366 41.3629 42.1706 42.1892C42.072 42.7882 41.8451 43.3588 41.5055 43.862C41.1659 44.3652 40.7216 44.7891 40.203 45.1047C39.4742 45.5008 38.6685 45.7348 37.841 45.7907C37.3089 45.8332 30.0454 45.8673 25.2951 45.8788H25.1764C23.7367 45.8788 22.1116 45.8734 20.6079 45.4404C20.0063 45.2544 19.4155 45.0345 18.8386 44.782C17.7991 44.2954 16.695 43.9611 15.5602 43.7894C15.0393 43.7517 14.5253 43.6483 14.0305 43.4816V23.6152C14.3612 23.3204 14.708 23.0429 15.0468 22.7726C16.4035 21.6885 17.8065 20.5676 18.2395 18.3473C18.9799 14.5344 19.6542 10.709 20.2623 6.87286C20.5949 4.78576 22.2529 3.28208 24.1145 3.37548C25.9888 3.47195 27.4526 5.20456 27.4473 7.31883C27.4382 11.1046 27.3643 14.8899 27.2256 18.6731L27.1896 19.6324L28.149 19.6653C28.9089 19.6913 30.0393 19.7327 30.1354 19.738C32.2098 20.0087 34.3601 20.1898 36.5245 20.277C36.8461 20.2908 37.6515 20.3073 38.5278 20.3245C39.6062 20.3463 40.8277 20.3704 41.3024 20.3946C42.7839 20.4661 43.9875 21.0193 44.6022 21.9074C44.8652 22.3156 45.0264 22.781 45.0723 23.2644C45.1181 23.7478 45.0472 24.2352 44.8656 24.6855C44.6986 25.2232 44.4471 25.7313 44.1207 26.19L43.698 26.7634L44.126 27.3327ZM2.00977 25.5866V42.5341C2.01058 43.2571 2.29812 43.9502 2.80931 44.4614C3.32051 44.9726 4.0136 45.2601 4.73654 45.2609H10.4393V22.8595H4.73654C4.01354 22.8603 3.32038 23.1479 2.80918 23.6592C2.29797 24.1705 2.01047 24.8636 2.00977 25.5866ZM8.52523 43.3468H4.73654C4.52106 43.3466 4.31446 43.261 4.16209 43.1086C4.00972 42.9562 3.92403 42.7496 3.92383 42.5341V25.5866C3.92403 25.3711 4.00971 25.1645 4.16207 25.0121C4.31442 24.8596 4.52102 24.7739 4.73654 24.7736H8.52523V43.3468Z" fill="#0077FF"/>
<path d="M6.41211 42.1391C7.04637 42.1391 7.56055 41.6249 7.56055 40.9907C7.56055 40.3564 7.04637 39.8422 6.41211 39.8422C5.77784 39.8422 5.26367 40.3564 5.26367 40.9907C5.26367 41.6249 5.77784 42.1391 6.41211 42.1391Z" fill="#0077FF"/>
</svg>
