<svg width="14" height="15" viewBox="0 0 14 15" fill="none" xmlns="http://www.w3.org/2000/svg">
<path d="M8.426 3.92303C8.426 4.3139 8.27572 4.68877 8.00821 4.96516C7.74071 5.24155 7.37789 5.39683 6.99958 5.39683C6.62127 5.39683 6.25846 5.24155 5.99095 4.96516C5.72345 4.68877 5.57316 4.3139 5.57316 3.92303C5.57316 3.53215 5.72345 3.15728 5.99095 2.88089C6.25846 2.6045 6.62127 2.44922 6.99958 2.44922C7.37789 2.44922 7.74071 2.6045 8.00821 2.88089C8.27572 3.15728 8.426 3.53215 8.426 3.92303ZM9.47085 5.39683C9.72099 4.94872 9.85259 4.44048 9.85242 3.92318C9.85225 3.40588 9.72032 2.89773 9.46989 2.44979C9.21946 2.00186 8.85934 1.6299 8.42572 1.3713C7.9921 1.1127 7.50025 0.976562 6.99958 0.976562C6.49891 0.976562 6.00706 1.1127 5.57344 1.3713C5.13982 1.6299 4.77971 2.00186 4.52927 2.44979C4.27884 2.89773 4.14692 3.40588 4.14675 3.92318C4.14658 4.44048 4.27817 4.94872 4.52831 5.39683H2.05419C1.88579 5.39679 1.7228 5.45833 1.59409 5.57054C1.46539 5.68275 1.37926 5.83841 1.35097 6.00993L0.0101369 14.1159C-0.00730379 14.2216 -0.00219312 14.33 0.025112 14.4335C0.0524171 14.537 0.101258 14.633 0.168224 14.715C0.235191 14.797 0.318667 14.8628 0.412824 14.908C0.50698 14.9532 0.609547 14.9766 0.713361 14.9766H13.2865C13.3904 14.9766 13.493 14.9532 13.5873 14.908C13.6815 14.8628 13.765 14.7968 13.832 14.7148C13.8989 14.6327 13.9478 14.5365 13.975 14.433C14.0023 14.3294 14.0073 14.2209 13.9897 14.1151L12.6489 6.0092C12.6204 5.83768 12.5342 5.6821 12.4053 5.57002C12.2765 5.45794 12.1134 5.39659 11.945 5.39683H9.47085ZM6.99958 6.87064H11.3437L12.4407 13.5028H1.55923L2.65685 6.87064H6.99958Z" fill="black"/>
</svg>
