<svg width="14" height="14" viewBox="0 0 14 14" fill="none" xmlns="http://www.w3.org/2000/svg">
<path d="M3.0625 1.75C2.94647 1.75 2.83519 1.79609 2.75314 1.87814C2.67109 1.96019 2.625 2.07147 2.625 2.1875V6.5625C2.625 6.67853 2.67109 6.78981 2.75314 6.87186C2.83519 6.95391 2.94647 7 3.0625 7H7.4375C7.55353 7 7.66481 6.95391 7.74686 6.87186C7.82891 6.78981 7.875 6.67853 7.875 6.5625V2.1875C7.875 2.07147 7.82891 1.96019 7.74686 1.87814C7.66481 1.79609 7.55353 1.75 7.4375 1.75H3.0625ZM3.5 12.25V7.875H5.0715C5.509 7.875 5.86979 7.96046 6.15387 8.13138C6.43796 8.30229 6.64942 8.55021 6.78825 8.87512C6.92942 9.20004 7 9.59204 7 10.0511C7 10.5131 6.92942 10.9083 6.78825 11.2367C6.66116 11.5501 6.43659 11.8143 6.14775 11.9901C5.86425 12.1634 5.5055 12.25 5.0715 12.25H3.5ZM4.95775 8.58025H4.35225V11.5421H4.95775C5.15783 11.5421 5.33138 11.5121 5.47838 11.452C5.62069 11.3934 5.74504 11.2984 5.83887 11.1764C5.93337 11.0521 6.00367 10.8981 6.04975 10.7144C6.09875 10.5312 6.12296 10.3154 6.12238 10.0669C6.12238 9.73729 6.08038 9.46312 5.99638 9.24437C5.92837 9.04047 5.79407 8.86521 5.61487 8.7465C5.44396 8.63567 5.22433 8.58025 4.95775 8.58025Z" fill="black"/>
<path d="M2.625 0C2.16087 0 1.71575 0.184374 1.38756 0.512563C1.05937 0.840752 0.875 1.28587 0.875 1.75V13.125H0.4375C0.321468 13.125 0.210188 13.1711 0.128141 13.2531C0.0460936 13.3352 0 13.4465 0 13.5625C0 13.6785 0.0460936 13.7898 0.128141 13.8719C0.210188 13.9539 0.321468 14 0.4375 14H10.0625C10.1785 14 10.2898 13.9539 10.3719 13.8719C10.4539 13.7898 10.5 13.6785 10.5 13.5625C10.5 13.4465 10.4539 13.3352 10.3719 13.2531C10.2898 13.1711 10.1785 13.125 10.0625 13.125H9.625V9.625C9.85706 9.625 10.0796 9.71719 10.2437 9.88128C10.4078 10.0454 10.5 10.2679 10.5 10.5V10.9375C10.5 11.2856 10.6383 11.6194 10.8844 11.8656C11.1306 12.1117 11.4644 12.25 11.8125 12.25C12.1606 12.25 12.4944 12.1117 12.7406 11.8656C12.9867 11.6194 13.125 11.2856 13.125 10.9375V7H13.5625C13.6785 7 13.7898 6.95391 13.8719 6.87186C13.9539 6.78981 14 6.67853 14 6.5625V3.7835C14 3.2445 14 2.53575 13.7428 1.96263C13.5998 1.63199 13.3568 1.35445 13.048 1.169C12.7172 0.972417 12.3054 0.874417 11.8125 0.875C11.6965 0.875 11.5852 0.921094 11.5031 1.00314C11.4211 1.08519 11.375 1.19647 11.375 1.3125C11.375 1.42853 11.4211 1.53981 11.5031 1.62186C11.5852 1.70391 11.6965 1.75 11.8125 1.75C12.194 1.75 12.439 1.82525 12.6 1.92062C12.7546 2.0141 12.8754 2.1545 12.9447 2.32138C13.0734 2.60838 13.111 2.97412 13.1206 3.39062H11.8125C11.6965 3.39062 11.5852 3.43672 11.5031 3.51877C11.4211 3.60081 11.375 3.71209 11.375 3.82812V6.5625C11.375 6.67853 11.4211 6.78981 11.5031 6.87186C11.5852 6.95391 11.6965 7 11.8125 7H12.25V10.9375C12.25 11.0535 12.2039 11.1648 12.1219 11.2469C12.0398 11.3289 11.9285 11.375 11.8125 11.375C11.6965 11.375 11.5852 11.3289 11.5031 11.2469C11.4211 11.1648 11.375 11.0535 11.375 10.9375V10.5C11.375 10.0359 11.1906 9.59075 10.8624 9.26256C10.5342 8.93437 10.0891 8.75 9.625 8.75V1.75C9.625 1.28587 9.44063 0.840752 9.11244 0.512563C8.78425 0.184374 8.33913 0 7.875 0L2.625 0ZM8.75 1.75V13.125H1.75V1.75C1.75 1.51794 1.84219 1.29538 2.00628 1.13128C2.17038 0.967187 2.39294 0.875 2.625 0.875H7.875C8.10706 0.875 8.32962 0.967187 8.49372 1.13128C8.65781 1.29538 8.75 1.51794 8.75 1.75Z" fill="black"/>
</svg>
