<svg width="86" height="25" viewBox="0 0 86 25" fill="none" xmlns="http://www.w3.org/2000/svg">
<path d="M62.7926 1.3619L67.8598 6.0842H57.7254L62.7926 1.3619Z" fill="black"/>
<path d="M59.9841 7.65831H65.6011V24.1592H59.9841V7.65831Z" fill="black"/>
<path d="M13.1754 14.7146L21.2499 7.98397V21.988C21.2499 21.988 16.102 24.4035 12.5904 24.3764C9.16549 24.3499 6.90861 23.81 4.28188 21.7709C0.754029 19.0324 -0.298071 15.8202 0.0691084 11.5664C0.45386 7.10909 2.14241 3.69719 6.50529 1.79613C14.2286 -1.56919 20.1968 2.77316 20.1968 2.77316L16.101 6.78982C16.101 6.78982 12.4692 5.50402 10.367 6.13848C8.18501 6.79702 6.50529 9.39523 6.50529 9.39523C6.50529 9.39523 5.2223 12.0828 5.80308 13.7376C6.6456 16.1381 8.46775 18.74 11.1862 18.6227C16.218 18.4056 15.2818 16.1259 15.2818 16.1259C15.2818 16.1259 15.0725 15.3902 14.6967 15.1488C14.1653 14.8076 13.1754 14.7146 13.1754 14.7146Z" fill="black"/>
<path d="M49.4522 7.00727C57.2932 7.00726 58.8139 13.7379 58.8139 13.7379V24.1596H53.1969V14.4978C53.1969 14.4978 53.1969 12.2178 49.4522 12.2178C46.1756 12.2178 45.5905 14.4978 45.5905 14.4978V24.1596H29.6755C29.6755 24.1596 20.3138 20.1432 22.1862 13.7379C24.0585 7.33264 29.6755 7.00727 29.6755 7.00727L34.1223 12.8691C34.1223 12.8691 31.9373 11.2404 29.2074 12.8691C26.4776 14.4978 28.7394 17.8628 28.7394 17.8628L34.1223 12.8691L29.6755 7.00727C29.6755 7.00727 33.9392 6.84574 36.1117 8.09255C41.0266 10.9131 40.3245 14.4978 40.3245 14.4978L35.5266 18.9484H44.8883L40.3245 14.4978C40.3245 14.4978 41.9628 7.00729 49.4522 7.00727Z" fill="black"/>
<path d="M80.1118 18.7314H85.4948L84.5586 24.1593H74.3777C74.3777 24.1593 66.888 22.8568 66.8883 15.4746C66.8887 8.52682 73.5586 7.11557 73.5586 7.11557L78.9416 12.8692C78.9416 12.8692 76.133 10.9179 73.7926 12.8692C71.0583 15.1489 73.5586 17.9714 73.5586 17.9714L75.5479 16.1259L78.9416 12.8692L73.5586 7.11557C73.5586 7.11557 78.3607 5.82996 81.282 8.20115C85.0267 11.2407 85.0267 14.389 85.0267 14.389L80.1118 18.7314Z" fill="black"/>
</svg>
