<svg width="146" height="26" viewBox="0 0 146 26" fill="none" xmlns="http://www.w3.org/2000/svg">
<path fill-rule="evenodd" clip-rule="evenodd" d="M37.3926 7.28422V25.8141H58.4862C58.4862 25.8141 60.5582 24.6534 60.3614 21.1849H43.5627V5.15308C41.7268 3.7761 38.5335 5.3957 37.3926 7.28422Z" fill="black"/>
<path fill-rule="evenodd" clip-rule="evenodd" d="M86.8234 7.18193C86.8234 7.18193 86.24 4.70993 84.358 4.66406H65.0609C65.0609 4.66406 63.402 4.87385 63.3691 6.53279V24.4265C63.3691 24.4265 63.4478 25.692 64.7133 25.9544H84.9086L79.8859 21.0826H70.2934V10.7424H86.8234V7.18193Z" fill="black"/>
<path fill-rule="evenodd" clip-rule="evenodd" d="M76.2148 14.3379H87.8272V25.9568L76.2148 14.3379Z" fill="#F70021"/>
<path fill-rule="evenodd" clip-rule="evenodd" d="M105.439 16.6436L99.2433 4.66406H92.9815C92.9815 4.66406 91.316 4.87385 91.2832 6.53279V25.9544H97.2829V13.8962L103.105 25.7837L105.439 25.7313L107.767 25.7837L113.59 13.8962V25.9544H119.589V6.53279C119.556 4.87385 117.891 4.66406 117.891 4.66406H111.629L105.439 16.6436Z" fill="black"/>
<path fill-rule="evenodd" clip-rule="evenodd" d="M145.935 7.18193C145.935 7.18193 145.351 4.70993 143.469 4.66406H124.172C124.172 4.66406 122.513 4.87385 122.48 6.53279V24.4265C122.48 24.4265 122.559 25.692 123.825 25.9544H145.935V16.7353V14.224H136.394V16.7353H140.912V20.5187L129.404 20.5252V10.7422H145.935L145.935 7.18193Z" fill="black"/>
<path fill-rule="evenodd" clip-rule="evenodd" d="M1.60612 22.3714L3.53601 25.9403C11.5438 25.9403 19.5497 25.9403 27.5575 25.9403L18.2408 10.5663L16.2784 14.0902L20.8039 22.3714H1.60612ZM0.719329 20.7299L0.548828 20.9525H18.4477L16.6152 17.6041H6.95549L16.7533 0.125H12.7514L0.719329 20.7299ZM28.3206 24.5295L30.3742 20.7299L18.3422 0.125H18.3402L9.32373 16.2054H13.5083L18.184 7.8038L28.3206 24.5295Z" fill="#F70021"/>
</svg>
