<svg width="142" height="22" viewBox="0 0 142 22" fill="none" xmlns="http://www.w3.org/2000/svg">
<path d="M20.3933 21.9181C19.5867 21.7709 18.9166 21.4816 18.4109 21.0622C17.9196 20.6546 17.4956 20.005 17.2721 19.3172C17.0738 18.7071 17.0466 18.481 17.0465 17.4445C17.0465 16.5424 17.0583 16.389 17.1565 16.0239C17.4719 14.8513 18.1235 14.0219 19.1385 13.5011C19.9167 13.1018 20.6022 12.9053 22.1751 12.6306C24.1153 12.2918 24.4196 12.1519 24.6128 11.5101C24.8174 10.8302 24.5137 10.1296 23.8956 9.85553C23.5729 9.71247 22.9518 9.69954 22.5762 9.82806C22.0831 9.99679 21.7357 10.4281 21.658 10.9681L21.62 11.2324L19.586 11.2449L17.5521 11.2575L17.553 11.0041C17.558 9.69648 18.1661 8.29346 19.044 7.56446C20.0854 6.69967 21.8488 6.2669 23.9328 6.36467C25.1946 6.42386 26.049 6.59759 26.774 6.9424C27.9901 7.52076 28.5633 8.36555 28.8239 9.96369C28.8641 10.2103 28.8918 11.7605 28.9152 15.0849C28.9451 19.3229 28.9581 19.9001 29.0324 20.2828C29.1171 20.7189 29.2602 21.1881 29.3822 21.4294C29.4351 21.534 29.4362 21.5621 29.3877 21.5628C28.8172 21.5715 24.946 21.5558 24.9349 21.5447C24.9049 21.5146 24.8238 21.0014 24.7879 20.6139L24.7515 20.2198L24.4991 20.5286C24.1638 20.9389 23.7848 21.2328 23.2586 21.4907C22.62 21.8036 22.1576 21.9038 21.2601 21.9236C20.8496 21.9326 20.4595 21.9302 20.3933 21.9181ZM23.5365 18.4393C23.9895 18.2396 24.3836 17.7179 24.5658 17.077C24.6486 16.7859 24.7221 14.9376 24.6495 14.9729C23.9968 15.2903 23.6749 15.4218 23.1375 15.5905C22.3744 15.83 22.0957 15.9621 21.8636 16.1941C21.6049 16.4528 21.5338 16.6571 21.5291 17.1556C21.5254 17.5502 21.5378 17.6121 21.6681 17.8473C21.8287 18.1373 22.1165 18.3965 22.3969 18.5036C22.6584 18.6034 23.2384 18.5707 23.5365 18.4393ZM34.3827 21.8758C32.7551 21.5168 31.6997 20.274 31.2945 18.2391C31.2214 17.8724 31.211 17.2518 31.194 12.2798L31.1751 6.72974H33.3929H35.6107L35.611 11.0758C35.6112 14.6147 35.6242 15.5069 35.6807 15.8794C35.763 16.4221 35.8503 16.6862 36.0299 16.9362C36.2204 17.2012 36.4264 17.324 36.7827 17.385C37.5293 17.5129 38.1976 17.0799 38.5045 16.2691C38.7318 15.6686 38.7374 15.544 38.7392 11.0036L38.7408 6.72974H40.9562H43.1715L43.1593 14.1469L43.1471 21.564H41.0382H38.9292L38.9271 20.648C38.9259 20.1441 38.918 19.7319 38.9096 19.7319C38.9011 19.7319 38.7709 19.9154 38.6201 20.1397C38.1406 20.8529 37.4622 21.4131 36.7558 21.6789C36.0807 21.9331 35.0356 22.0197 34.3827 21.8758ZM57.215 21.8714C55.0222 21.5304 53.3775 20.0532 52.5672 17.6969C52.179 16.5681 52.0206 15.517 52.0245 14.0977C52.0296 12.2942 52.307 10.99 52.9719 9.6432C53.9299 7.70283 55.4712 6.61983 57.6029 6.3892C58.485 6.29376 59.5574 6.40839 60.363 6.68423C61.9777 7.23707 63.2454 8.56745 63.94 10.4378C64.7615 12.6501 64.7484 15.7666 63.9083 17.9419C63.125 19.9701 61.7466 21.2836 59.9081 21.7538C59.1166 21.9563 58.0581 22.0025 57.215 21.8714ZM58.7624 17.7324C59.0975 17.6329 59.4805 17.2778 59.6799 16.8819C59.9928 16.2606 60.1219 15.4497 60.1221 14.1038C60.1226 11.6896 59.5348 10.5214 58.3164 10.5141C57.0188 10.5063 56.4142 11.6767 56.4142 14.1966C56.4142 15.281 56.5886 16.3285 56.8588 16.8666C57.2407 17.6273 57.9816 17.9643 58.7624 17.7324ZM90.2922 21.877C88.9837 21.6714 87.9033 21.1279 86.9904 20.216C85.6067 18.8341 84.8763 16.7749 84.875 14.2523C84.8736 11.6472 85.6606 9.46474 87.1384 7.97546C88.5009 6.60252 90.1935 6.10929 92.3076 6.4692C94.4377 6.83184 95.9096 8.11892 96.7359 10.3415C97.1583 11.4774 97.3823 12.8265 97.4695 14.7598L97.5005 15.446H93.2833H89.066L89.0939 15.6748C89.2393 16.8693 89.7268 17.7488 90.4374 18.0986C90.8621 18.3077 91.4092 18.345 91.8934 18.1979C92.3416 18.0618 92.7767 17.7662 92.9714 17.4656L93.1255 17.2278H95.1641C97.5196 17.2278 97.2963 17.1598 97.0584 17.805C96.6974 18.7839 96.2908 19.464 95.6723 20.1231C94.7686 21.086 93.5292 21.7151 92.1788 21.8965C91.6866 21.9626 90.777 21.9533 90.2922 21.877ZM93.226 12.1594C93.1537 11.4896 92.8865 10.9013 92.4737 10.5026C92.0583 10.1015 91.6036 9.95766 91.013 10.0405C90.0855 10.1707 89.4955 10.7798 89.2094 11.9022C89.156 12.1117 89.1123 12.323 89.1123 12.3717C89.1123 12.4564 89.2045 12.4603 91.1855 12.4603H93.2586L93.226 12.1594ZM70.2832 21.7048C69.4445 21.6056 68.8696 21.3514 68.3805 20.8636C67.755 20.2399 67.4458 19.4073 67.3253 18.0224C67.3138 17.89 67.3028 16.0859 67.3009 14.0134L67.2975 10.2451H66.3344H65.3713V8.48744V6.72974H66.3344H67.2975V4.46591V2.20207L69.5007 2.2146L71.7038 2.22713L71.7164 4.47843L71.7289 6.72974H72.9079H74.087L74.0668 6.83809C74.0557 6.89768 74.045 7.68865 74.043 8.5958L74.0394 10.2451H72.8817H71.7239L71.738 13.3151L71.752 16.3851L71.8631 16.66C71.9807 16.9512 72.1702 17.1467 72.4503 17.2661C72.6361 17.3453 73.239 17.3638 73.7505 17.3062L74.0635 17.2709L74.0525 19.4218L74.0414 21.5726L73.6672 21.5933C73.4614 21.6047 72.9071 21.6456 72.4353 21.6842C71.5263 21.7587 70.7977 21.7657 70.2832 21.7048ZM80.083 21.6875C79.5227 21.5934 79.3048 21.5258 78.9273 21.3294C77.9409 20.816 77.3946 19.7357 77.2671 18.0465C77.24 17.6883 77.2179 15.7909 77.2179 13.8208V10.2451H76.2547H75.2916V8.48744V6.72974H76.2542H77.2169L77.2294 4.47843L77.2419 2.22713L79.4451 2.2146L81.6482 2.20207V4.46591V6.72974H82.8281H84.0079V8.48744V10.2451H82.8257H81.6436L81.658 13.291L81.6723 16.3369L81.788 16.6259C82.0424 17.2616 82.4879 17.4266 83.6352 17.3099L84.0089 17.2719L83.9964 19.422L83.9838 21.5721L83.5745 21.5927C83.3493 21.6039 82.9701 21.6346 82.7317 21.6608C81.9715 21.7443 80.5094 21.7591 80.0832 21.6875H80.083ZM3.40618 21.5735L0.986328 21.561V11.3523V1.14361H3.41822H5.85011V4.6831V8.22258H8.11315H10.3762L10.3885 4.69514L10.4009 1.16769L12.8448 1.15521L15.2887 1.14273V11.3514V21.5601L12.8528 21.573C11.5131 21.5801 10.4079 21.5769 10.3968 21.5659C10.3858 21.5549 10.3768 19.7289 10.3768 17.5082V13.4707L8.1255 13.4832L5.87419 13.4957L5.85011 17.5408L5.82604 21.586L3.40618 21.5735ZM45.6272 11.3648V1.14361H47.8183H50.0094V11.3648V21.586H47.8183H45.6272V11.3648ZM103.182 21.5146C103.191 21.4885 103.653 21.0064 104.21 20.4431C104.766 19.8798 105.892 18.7363 106.713 17.902C107.534 17.0677 108.724 15.8595 109.359 15.2172L110.514 14.0493L109.24 12.7612C107.418 10.9183 105.674 9.14649 102.331 5.74253C100.718 4.1004 98.9102 2.2627 98.3128 1.65876C97.7154 1.05481 97.2176 0.550972 97.2066 0.539122C97.1956 0.527272 99.787 0.517578 102.965 0.517578H108.744L111.219 3.03374C112.58 4.41763 114.972 6.85013 116.534 8.43929C118.097 10.0284 119.981 11.9402 120.723 12.6876C121.464 13.4351 122.053 14.0635 122.032 14.0842C122.011 14.1048 120.778 15.3569 119.292 16.8666C117.805 18.3763 116.156 20.0504 115.626 20.5867L114.662 21.5619H108.914C105.172 21.5619 103.172 21.5454 103.182 21.5146Z" fill="black"/>
<path d="M120.182 21.5188C120.199 21.4734 123.72 17.8783 126.12 15.4575C126.862 14.7084 127.47 14.0758 127.47 14.0517C127.47 14.0276 126.832 13.362 126.052 12.5725C123.962 10.4576 122.234 8.70235 119.378 5.79507C117.975 4.36666 116.239 2.60053 115.519 1.87033L114.211 0.542704L119.974 0.530139L125.736 0.517578L126.481 1.27656C126.89 1.69401 127.865 2.68618 128.648 3.48139C129.43 4.27659 130.741 5.60932 131.56 6.443C132.38 7.27667 133.702 8.61972 134.498 9.42754C138.293 13.2771 139.003 14.0062 139.003 14.0523C139.003 14.0797 138.326 14.7891 137.498 15.6287C135.29 17.869 133.351 19.8403 132.454 20.7563L131.665 21.5629H125.916C122.453 21.5629 120.172 21.5454 120.182 21.5188ZM135.006 21.5302C135.006 21.4987 135.729 20.7625 139.148 17.3132L140.713 15.7339L141.35 16.373L141.987 17.0122L139.745 19.2875L137.502 21.5629H136.254C135.568 21.5629 135.006 21.5482 135.006 21.5302Z" fill="#EC2427"/>
</svg>
