<svg width="215" height="23" viewBox="0 0 215 23" fill="none" xmlns="http://www.w3.org/2000/svg">
<path d="M124.558 22.5856V4.95868L138.631 4.90923C140.486 4.90923 141.858 5.32127 142.746 6.14534C143.65 6.95293 144.102 8.17256 144.102 9.80422C144.102 11.4359 143.588 12.6308 142.559 13.3889C143.245 13.7845 143.751 14.3119 144.079 14.9712C144.406 15.6139 144.57 16.4463 144.57 17.4681C144.57 19.1327 144.118 20.4018 143.214 21.2753C142.325 22.1324 140.954 22.5609 139.099 22.5609L124.558 22.5856ZM138.187 8.07367H128.298V12.0292H138.187C139.606 12.0292 140.315 11.3535 140.315 10.002C140.315 8.71645 139.606 8.07367 138.187 8.07367ZM138.655 15.1937H128.298V19.3964H138.655C140.073 19.3964 140.782 18.6877 140.782 17.2703C140.782 15.8859 140.073 15.1937 138.655 15.1937Z" fill="black"/>
<path d="M50.1738 22.5357V18.7074H66.3332C67.2566 18.7074 67.7183 18.1859 67.7183 17.1429C67.7183 16.122 67.2566 15.6116 66.3332 15.6116H55.8791C53.9224 15.6116 52.4384 15.1677 51.427 14.28C50.4157 13.3701 49.91 12.0719 49.91 10.3852C49.91 8.67642 50.4157 7.36706 51.427 6.45716C52.4603 5.52508 53.9444 5.05903 55.8791 5.05903H70.9172V8.88725H56.1099C55.1646 8.88725 54.6919 9.35329 54.6919 10.2854C54.6919 10.7514 54.8238 11.1176 55.0876 11.3839C55.3514 11.6502 55.6922 11.7834 56.1099 11.7834H67.1906C68.9055 11.7834 70.2136 12.2383 71.115 13.1482C72.0384 14.0359 72.5001 15.3342 72.5001 17.043C72.5001 18.774 72.0384 20.1278 71.115 21.1042C70.1916 22.0585 68.8835 22.5357 67.1906 22.5357H50.1738Z" fill="black"/>
<path d="M193.488 22.5856V5.20883H210.447C211.939 5.20883 213.033 5.70371 213.728 6.69345C214.423 7.6607 214.77 8.94286 214.77 10.5399V22.5856H211.083V11.1473C211.083 9.77515 210.558 9.08908 209.507 9.08908H205.972V22.5856H202.285V9.08908H197.174V22.5856H193.488Z" fill="black"/>
<path d="M107.405 22.5856C104.842 22.5856 104.074 22.2443 102.64 20.788C101.206 19.3096 101.369 16.7602 101.369 13.9138C101.369 11.0452 101.369 5.20883 101.369 5.20883C101.369 5.20883 106.953 5.20883 109.516 5.20883H114.823C117.385 5.20883 119.947 5.22843 121.381 6.70683C122.815 8.16317 122.969 11.0452 122.969 13.9138C122.969 16.7602 122.815 19.3096 121.381 20.788C119.947 22.2443 119.338 22.5856 116.775 22.5856H107.405ZM109.516 18.7793H114.823C116.066 18.7793 117.396 18.7362 118.046 17.9418C118.715 17.1474 118.667 15.5687 118.667 13.9138C118.667 12.2368 118.715 10.4972 118.046 9.70282C117.396 8.90846 116.066 9.01517 114.823 9.01517H109.516C108.273 9.01517 106.803 8.90846 106.134 9.70282C105.484 10.4972 105.672 12.2368 105.672 13.9138C105.672 15.5687 105.484 17.447 106.134 18.2414C106.803 19.0358 108.273 18.7793 109.516 18.7793Z" fill="black"/>
<path d="M152.834 22.5856C150.271 22.5856 149.504 22.2443 148.069 20.788C146.635 19.3096 146.799 16.7602 146.799 13.9138C146.799 11.0452 146.799 5.20883 146.799 5.20883C146.799 5.20883 152.383 5.20883 154.945 5.20883H160.252C162.815 5.20883 165.376 5.22843 166.811 6.70683C168.245 8.16317 168.399 11.0452 168.399 13.9138C168.399 16.7602 168.245 19.3096 166.811 20.788C165.376 22.2443 164.767 22.5856 162.205 22.5856H152.834ZM154.945 18.7793H160.252C161.495 18.7793 162.825 18.7362 163.475 17.9418C164.145 17.1474 164.096 15.5687 164.096 13.9138C164.096 12.2368 164.145 10.4972 163.475 9.70282C162.825 8.90846 161.495 9.01517 160.252 9.01517H154.945C153.702 9.01517 152.233 8.90846 151.563 9.70282C150.913 10.4972 151.102 12.2368 151.102 13.9138C151.102 15.5687 150.913 17.447 151.563 18.2414C152.233 19.0358 153.702 18.7793 154.945 18.7793Z" fill="black"/>
<path d="M176.022 22.5856C173.46 22.5856 172.692 22.2443 171.258 20.788C169.823 19.3096 169.987 16.7602 169.987 13.9138C169.987 11.0452 169.987 5.20883 169.987 5.20883C169.987 5.20883 175.571 5.20883 178.134 5.20883H183.441C186.003 5.20883 188.565 5.22843 189.999 6.70683C191.433 8.16317 191.587 11.0452 191.587 13.9138C191.587 16.7602 191.433 19.3096 189.999 20.788C188.565 22.2443 187.956 22.5856 185.393 22.5856H176.022ZM178.134 18.7793H183.441C184.684 18.7793 186.014 18.7362 186.664 17.9418C187.333 17.1474 187.285 15.5687 187.285 13.9138C187.285 12.2368 187.333 10.4972 186.664 9.70282C186.014 8.90846 184.684 9.01517 183.441 9.01517H178.134C176.891 9.01517 175.421 8.90846 174.752 9.70282C174.102 10.4972 174.29 12.2368 174.29 13.9138C174.29 15.5687 174.102 17.447 174.752 18.2414C175.421 19.0358 176.891 18.7793 178.134 18.7793Z" fill="black"/>
<path d="M79.4514 22.5856V4.90923H94.2216C96.1515 4.90923 97.555 5.41264 98.4323 6.41945C99.3314 7.40337 99.781 8.70764 99.781 10.3323V22.5856H95.0111V11.2008C95.0111 9.8279 94.3532 9.14144 93.0374 9.14144H83.5809V22.5856L79.4514 22.5856Z" fill="black"/>
<path d="M73.4161 22.5856V4.90923H77.8632V22.5856H73.4161Z" fill="black"/>
<path d="M11.3156 9.85262C11.3156 9.85262 10.8778 10.7321 10.9987 11.2008C11.1133 11.6448 11.7921 11.9498 11.7921 11.9498L18.1451 12.0247L27.6746 11.9498C27.6746 11.9498 28.0633 12.0012 28.151 12.2494C28.2388 12.4976 27.9922 12.8486 27.9922 12.8486L24.4981 17.6422C24.4981 17.6422 24.3746 17.8372 24.1804 17.9418C23.965 18.0579 23.5451 18.0916 23.5451 18.0916H8.6156C8.6156 18.0916 6.50355 18.0946 4.96263 17.6422C2.85378 17.0231 0.0398209 14.9458 0.039063 14.3466C0.038595 13.9766 0.357487 13.4478 0.357487 13.4478L5.28105 5.05903L14.6509 0.714844H31.7742C31.7742 0.714844 32.1201 0.813294 32.2813 1.01444C32.455 1.23132 32.3601 1.55667 32.3601 1.55667L31.8044 2.3985L31.0107 3.56104C31.0107 3.56104 30.7378 3.77335 30.5342 3.86064C30.2463 3.98407 29.7401 4.01044 29.7401 4.01044L27.0797 4.08216H18.0466C18.0466 4.08216 16.3988 4.01044 15.9223 4.45983C15.7305 4.64071 15.6244 4.80347 15.6244 4.80347L11.3156 9.85262Z" fill="black"/>
<path d="M31.0342 13.2425C31.0342 13.2425 31.4637 12.3594 31.3383 11.8917C31.2196 11.4487 30.538 11.1493 30.538 11.1493L24.1845 11.1277L14.6561 11.2825C14.6561 11.2825 14.2669 11.2344 14.1768 10.9869C14.0868 10.7395 14.33 10.3864 14.33 10.3864L17.7788 5.56371C17.7788 5.56371 17.9005 5.36773 18.0936 5.26146C18.308 5.14356 18.7275 5.10634 18.7275 5.10634L33.6564 4.98117C33.6564 4.98117 35.7684 4.96048 37.3135 5.39992C39.4281 6.00132 42.2615 8.05494 42.2679 8.65411C42.2719 9.02408 41.958 9.55554 41.958 9.55554L37.1137 17.9853L27.7851 22.4078L10.6625 22.5514C10.6625 22.5514 10.3157 22.4559 10.1527 22.2561C9.97683 22.0406 10.0687 21.7145 10.0687 21.7145L10.6165 20.8681L11.3992 19.6989C11.3992 19.6989 11.6701 19.4843 11.8728 19.3953C12.1596 19.2695 12.6655 19.2389 12.6655 19.2389L15.3251 19.1449L24.3579 19.0691C24.3579 19.0691 26.0063 19.127 26.4785 18.6737C26.6685 18.4912 26.7731 18.3275 26.7731 18.3275L31.0342 13.2425Z" fill="black"/>
</svg>
