<svg width="171" height="170" viewBox="0 0 171 170" fill="none" xmlns="http://www.w3.org/2000/svg">
<path d="M80.8855 24.054C80.8023 22.9892 81.5983 22.0554 82.6652 22.0049C97.2439 21.3158 111.632 25.7255 123.337 34.51C135.559 43.6819 144.019 56.9942 147.133 71.9544C150.247 86.9145 147.802 102.497 140.255 115.784C133.026 128.509 121.593 138.294 107.95 143.479C106.952 143.858 105.849 143.32 105.501 142.31C105.152 141.301 105.69 140.203 106.687 139.821C119.441 134.944 130.128 125.781 136.891 113.873C143.974 101.405 146.269 86.7817 143.347 72.7426C140.424 58.7035 132.485 46.2108 121.016 37.6035C110.063 29.3839 96.6071 25.2458 82.9667 25.8629C81.8998 25.9112 80.9688 25.1188 80.8855 24.054Z" fill="#FFC01F"/>
<path d="M54.7474 130.334C54.2057 131.134 53.1164 131.345 52.334 130.778C41.6419 123.043 33.9605 111.812 30.6421 99.0017C27.1772 85.6263 28.7062 71.4466 34.9429 59.1173C41.1796 46.7881 51.6963 37.1547 64.524 32.0208C76.8097 27.1039 90.4084 26.6371 102.975 30.667C103.894 30.9619 104.37 31.9644 104.047 32.8745C103.724 33.7846 102.725 34.2575 101.804 33.9645C90.0403 30.218 77.3193 30.6669 65.8235 35.2677C53.7855 40.0855 43.9163 49.1258 38.0636 60.6959C32.2109 72.2661 30.776 85.5728 34.0276 98.1247C37.1327 110.111 44.3084 120.625 54.2968 127.882C55.0781 128.449 55.2891 129.535 54.7474 130.334Z" fill="#FFC01F"/>
<path d="M91.5365 146.849C91.6401 147.938 90.8412 148.908 89.7493 148.978C80.0169 149.603 70.2604 148.007 61.2207 144.302C52.181 140.596 44.1118 134.885 37.6179 127.609C36.8893 126.792 37.0013 125.541 37.8396 124.838C38.6779 124.135 39.925 124.247 40.6552 125.061C46.7353 131.846 54.2781 137.174 62.7235 140.636C71.169 144.098 80.2811 145.597 89.3739 145.032C90.4659 144.964 91.4329 145.76 91.5365 146.849Z" fill="#FFC01F"/>
</svg>
